/* XPM */
static char *door_4[] = {
/* columns rows colors chars-per-pixel */
"128 128 6 1 ",
"  c black",
". c #462A07",
"X c #794C15",
"o c #4C5E64",
"O c #889295",
"+ c #AEBABE",
/* pixels */
"                                                                                                                                ",
"XXX                                                                                                                          XXX",
"XXXXXXXX                                                                                                                XXXXXXXX",
"XXXXXXXXXXXXX                                                                                                     XXXXXXXXXXXXXX",
"XXXXXXXXXXXXX.XXXX                                                                                           XXX.XXXXXXXXXXXXXXX",
"XXXXXXXXXXXXX.XXXXXXXXX                                                                                 XXXXXXXX.XXXXXXXXXXXXXXX",
"XXXXXXXXXXXXX.XXXXXXXXXXXX.X                                                                       X.XXXXXXXXXXX.XXXXXXXXXXXXXXX",
"XXXXXXXXXXXXX.XXXXXXXXXXXX.XXXXXX                                                            XXXXXXX.XXXXXXXXXXX.XXXXXXXXXXXXXXX",
"XXXXXXXXXXXXX.XXXXXXXXXXXX.XXXXXXXXXXX                                                  X.XXXXXXXXXX.XXXXXXXXXXX.XXXXXXXXXXXXXXX",
"XXXXXXXXXXXXX.XXXXXXXXXXXX.XXXXXXXXXXX.XXXX                                        XXXXXX.XXXXXXXXXX.XXXXXXXXXXX.XXXXXXXXXXXXXXX",
"XXXXXXXXXXXXX.XXXXXXXXXXXX.XXXXXXXXXXX.XXXXXXXXX                              X.XXXXXXXXX.XXXXXXXXXX.XXXXXXXXXXX.XXXXXXXXXXXXXXX",
"XXXXXXXXXXXXX.XXXXXXXXXXXX.XXXXXXXXXXX.XXXXXXXXX.XXXX                      XXXX.XXXXXXXXX.XXXXXXXXXX.XXXXXXXXXXX.XXXXXXXXXXXXXXX",
"XXXXXXXXXXXXX.XXXXXXXXXXXX.XXXXXXXXXXX.XXXXXXXXX.XXXXX                     XXXX.XXXXXXXXX.XXXXXXXXXX.XXXXXXXXXXX.XXXXXXXXXXXXXXX",
"XXXXXXXXXXXXX.XXXXXXXXXXXX.XXXXXXXXXXX.XXXXXXXXX.XXXXX                     XXXX.XXXXXXXXX.XXXXXXXXXX.XXXXXXXXXXX.XXXXXXXXXXXXXXX",
"XXXXXXXXXXXXX.XXXXXXXXXXXX.XXXXXXXXXXX.XXXXXXXXX.XXXXX                     XXXX.XXXXXXXXX.XXXXXXXXXX.XXXXXXXXXXX.XXXXXXXXXXXXXXX",
"XXXXXXXXXXXXX.XXXXXXXXXXXX.XXXXXXXXXXX.XXXXXXXXX.XXXXX                     XXXX.XXXXXXXXX.XXXXXXXXXX.XXXXXXXXXXX.XXXXXXXXXXXXXXX",
"XXXXXXXXXXXXX.XXXXXXXXXXXX.XXXXXXXXXXX.XXXXXXXXX.XXXXX                     XXXX.XXXXXXXXX.XXXXXXXXXX.XXXXXXXXXXX.XXXXXXXXXXXXXXX",
"XXXXXXXXXXXXX.XXXXXXXXXXXX.XXXXXXXXXXX.XXXXXXXXX.XXXXX                     XXXX.XXXXXXXXX.XXXXXXXXXX.XXXXXXXXXXX.XXXXXXXXXXXXXXX",
"XXXXXXXXXXXXX.XXXXXXXXXXXX.XXXXXXXXXXX.XXXXXXXXX.XXXXX                     XXXX.XXXXXXXXX.XXXXXXXXXX.XXXXXXXXXXX.XXXXXXXXXXXXXXX",
"XXXXXXXXXXXXX.XXXXXXXXXXXX.XXXXXXXXXXX.XXXXXXXXX.XXXXX                     XXXX.XXXXXXXXX.XXXXXXXXXX.XXXXXXXXXXX.XXXXXXXXXXXXXXX",
"XXXXXXXXXXXXX.XXXXXXXXXXXX.XXXXXXXXXXX.XXXXXXXXX.XXXXX                     XXXX.XXXXXXXXX.XXXXXXXXXX.XXXXXXXXXXX.XXXXXXXXXXXXXXX",
"XXXXXXXXXXXXX.XXXXXXXXXXXX.XXXXXXXXXXX.XXXXXXXXX.XXXXX                     XXXX.XXXXXXXXX.XXXXXXXXXX.XXXXXXXXXXX.XXXXXXXXXXXXXXX",
"XXXXXXXXXXXXX.XXXXXXXXXXXX.XXXXXXXXXXX.XXXXXXXXX.XXXXX                     XXXX.XXXXXXXXX.XXXXXXXXXX.XXXXXXXXXXX.XXXXXXXXXXXXXXX",
"XXXXXXXXXXXXX.XXXXXXXXXXXX.XXXXXXXXXXX.XXXXXXXXX.XXXXX                     XXXX.XXXXXXXXX.XXXXXXXXXX.XXXXXXXXXXX.XXXXXXXXXXXXXXX",
"XXXXXXXXXXXXX.XXXXXXXXXXXX.XXXXXXXXXXX.XXXXXXXXX.XXXXX                     XXXX.XXXXXXXXX.XXXXXXXXXX.XXXXXXXXXXX.XXXXXXXXXXXXXXX",
"XXXXXXXXXXXXX.XXXXXXXXXXXX.XXXXXXXXXXX.XXXXXXXXX.XXXXX                     XXXX.XXXXXXXXX.XXXXXXXXXX.XXXXXXXXXXX.XXXXXXXXXXXXXXX",
"XXXXXXXXXXXXX.XXXXXXXXXXXX.XXXXXXXXXXX.XXXXXXXXX.XXXXX                     XXXX.XXXXXXXXX.XXXXXXXXXX.XXXXXXXXXXX.XXXXXXXXXXXXXXX",
"XXXXXXXXXXXXX.XXXXXXXXXXXX.XXXXXXXXXXX.XXXXXXXXX.XXXXX                     XXXX.XXXXXXXXX.XXXXXXXXXX.XXXXXXXXXXX.XXXXXXXXXXXXXXX",
"XXXXXXXXXXXXX.XXXXXXXXXXXX.XXXXXXXXXXX.XXXXXXXXX.XXXXX                     XXXX.XXXXXXXXX.XXXXXXXXXX.XXXXXXXXXXX.XXXXXXXXXXXXXXX",
"XXXXXXXXXXXXX.XXXXXXXXXXXX.XXXXXXXXXXX.XXXXXXXXX.XXXXX                     XXXX.XXXXXXXXX.XXXXXXXXXX.XXXXXXXXXXX.XXXXXXXXXXXXXXX",
"XXXXXXXXXXXXX.XXXXXXXXXXXX.XXXXXXXXXXX.XXXXXXXXX.XXXXX                     XXXX.XXXXXXXXX.XXXXXXXXXX.XXXXXXXXXXX.XXXXXXXXXXXXXXX",
"XXXXXXXXXXXXX.XXXXXXXXXXXX.XXXXXXXXXXX.XXXXXXXXX.XXXXX                     XXXX.XXXXXXXXX.XXXXXXXXXX.XXXXXXXXXXX.XXXXXXXXXXXXXXX",
"XXXXXXXXXXXXX.XXXXXXXXXXXX.XXXXXXXXXXX.XXXXXXXXX.XXXXX                     XXXX.XXXXXXXXX.XXXXXXXXXX.XXXXXXXXXXX.XXXXXXXXXXXXXXX",
"XXXXXXXXXXXXX.XXXXXXXXXXXX.XXXXXXXXXXX.XXXXXXXXX.XXXXX                     XXXX.XXXXXXXXX.XXXXXXXXXX.XXXXXXXXXXX.XXXXXXXXXXXXXXX",
"XXXXXXXXXXXXX.XXXXXXXXXXXX.XXXXXXXXXXX.XXXXXXXXX.XXXXX                     XXXX.XXXXXXXXX.XXXXXXXXXX.XXXXXXXXXXX.XXXXXXXXXXXXXXX",
"XXXXXXXXXXXXX.XXXXXXXXXXXX.XXXXXXXXXXX.XXXXXXXXX.XXXXX                     XXXX.XXXXXXXXX.XXXXXXXXXX.XXXXXXXXXXX.XXXXXXXXXXXXXXX",
"XXXXXXXXXXXXX.XXXXXXXXXXXX.XXXXXXXXXXX.XXXXXXXXX.XXXXX                     XXXX.XXXXXXXXX.XXXXXXXXXX.XXXXXXXXXXX.XXXXXXXXXXXXXXX",
"XXXXXXXXXXXXX.XXXXXXXXXXXX.XXXXXXXXXXX.XXXXXXXXX.XXXXX                     XXXX.XXXXXXXXX.XXXXXXXXXX.XXXXXXXXXXX.XXXXXXXXXXXXXXX",
"XXXXXXXXXXXXX.XXXXXXXXXXXX.XXXXXXXXXXX.XXXXXXXXX.XXXXX                     XXXX.XXXXXXXXX.XXXXXXXXXX.XXXXXXXXXXX.XXXXXXXXXXXXXXX",
"XXXXXXXXXXXXX.XXXXXXXXXXXX.XXXXXXXXXXX.XXXXXXXXX.XXXXX                     XXXX.XXXXXXXXX.XXXXXXXXXX.XXXXXXXXXXX.XXXXXXXXXXXXXXX",
"XXXXXXXXXXXXX.XXXXXXXXXXXX.XXXXXXXXXXX.XXXXXXXXX.XXXXX                     XXXX.XXXXXXXXX.XXXXXXXXXX.XXXXXXXXXXX.XXXXXXXXXXXXXXX",
"XXXXXXXXXXXXX.XXXXXXXXXXXX.XXXXXXXXXXX.XXXXXXXXX.XXXXX                     XXXX.XXXXXXXXX.XXXXXXXXXX.XXXXXXXXXXX.XXXXXXXXXXXXXXX",
"XXXXXXXXXXXXX.XXXXXXXXXXXX.XXXXXXXXXXX.XXXXXXXXX.XXXXX                     XXXX.XXXXXXXXX.XXXXXXXXXX.XXXXXXXXXXX.XXXXXXXXXXXXXXX",
"XXXXXXXXXXXXX.XXXXXXXXXXXX.XXXXXXXXXXX.XXXXXXXXX.XXXXX                     XXXX.XXXXXXXXX.XXXXXXXXXX.XXXXXXXXXXX.XXXXXXXXXXXXXXX",
"XXXXXXXXXXXXX.XXXXXXXXXXXX.XXXXXXXXXXX.XXXXXXXXX.XXXXX                     XXXX.XXXXXXXXX.XXXXXXXXXX.XXXXXXXXXXX.XXXXXXXXXXXXXXX",
"XXXXXXXXXXXXX.XXXXXXXXXXXX.XXXXXXXXXXX.XXXXXXXXX.XXXXX                     XXXX.XXXXXXXXX.XXXXXXXXXX.XXXXXXXXXXX.XXXXXXXXXXXXXXX",
"XXXXXXXXXXXXX.XXXXXXXXXXXX.XXXXXXXXXXX.XXXXXXXXX.XXXXX                     XXXX.XXXXXXXXX.XXXXXXXXXX.XXXXXXXXXXX.XXXXXXXXXXXXXXX",
"XXXXXXXXXXXXX.XXXXXXXXXXXX.XXXXXXXXXXX.XXXXXXXXX.XXXXX                     XXXX.XXXXXXXXX.XXXXXXXXXX.XXXXXXXXXXX.XXXXXXXXXXXXXXX",
"XXXXXXXXXXXXX.XXXXXXXXXXXX.XXXXXXXXXXX.XXXXXXXXX.XXXXX                     XXXX.XXXXXXXXX.XXXXXXXXXX.XXXXXXXXXXX.XXXXXXXXXXXXXXX",
"XXXXXXXXXXXXX.XXXXXXXXXXXX.XXXXXXXXXXX.XXXXXXXXX.XXXXX                     XXXX.XXXXXXXXX.XXXXXXXXXX.XXXXXXXXXXX.XXXXXXXXXXXXXXX",
"XXXXXXXXXXXXX.XXXXXXXXXXXX.XXXXXXXXXXX.XXXXXXXXX.XXXXX                     XXXX.XXXXXXXXX.XXXXXXXXXX.XXXXXXXXXXX.XXXXXXXXXXXXXXX",
"XXXXXXXXXXXXX.XXXXXXXXXXXX.XXXXXXXXXXX.XXXXXXXXX.XXXXX                     XXXX.XXXXXXXXX.XXXXXXXXXX.XXXXXXXXXXX.XXXXXXXXXXXXXXX",
"XXXXXXXXXXXXX.XXXXXXXXXXXX.XXXXXXXXXXX.XXXXXXXXX.XXXXX                     XXXX.XXXXXXXXX.XXXXXXXXXX.XXXXXXXXXXX.XXXXXXXXXXXXXXX",
"XXXXXXXXXXXXX.XXXXXXXXXXXX.XXXXXXXXXXX.XXXXXXXXX.XXXXX                     XXXX.XXXXXXXXX.XXXXXXXXXX.XXXXXXXXXXX.XXXXXXXXXXXXXXX",
"XXXXXXXXXXXXX.XXXXXXXXXXXX.XXXXXXXXXXX.XXXXXXXXX.XXXXX                     XXXX.XXXXXXXXX.XXXXXXXXXX.XXXXXXXXXXX.XXXXXXXXXXXXXXX",
"XXXXXXXXXXXXX.XXXXXXXXXXXX.XXXXXXXXXXX.XXXXXXXXX.XXXXX                     XXXX.XXXXXXXXX.XXXXXXXXXX.XXXXXXXXXXX.XXXXXXXXXXXXXXX",
"XXXXXXXXXXXXX.XXXXXXXXXXXX.XXXXXXXXXXX.XXXXXXXXX.XXXXX                     XXXX.XXXXXXXXX.XXXXXXXXXX.XXXXXXXXXXX.XXXXXXXXXXXXXXX",
"XXXXXXXXXXXXX.XXXXXXXXXXXX.XXXXXXXXXXX.XXXXXXXXX.XXXXX                     XXXX.XXXXXXXXX.XXXXXXXXXX.XXXXXXXXXXX.XXXXXXXXXXXXXXX",
"XXXXXXXXXXXXX.XXXXXXXXXXXX.XXXXXXXXXXX.XXXXXXXXX.XXXXX                     XXXX.XXXXXXXXX.XXXXXXXXXX.XXXXXXXXXXX.XXXXXXXXXXXXXXX",
"XXXXXXXXXXXXX.XXXXXXXXXXXX.XXXXXXXXXXX.XXXXXXXXX.XXXXX                     XXXX.XXXXXXXXX.XXXXXXXXXX.XXXXXXXXXXX.XXXXXXXXXXXXXXX",
"XXXXXXXXXXXXX.XXXXXXXXXXXX.XXXXXXXXXXX.XXXXXXXXX.XXXXX                     XXXX.XXXXXXXXX.XXXXXXXXXX.XXXXXXXXXXX.XXXXXXXXXXXXXXX",
"XXXXXXXXXXXXX.XXXXXXXXXXXX.XXXXXXXXXXX.XXXXXXXXX.XXXXX                     XXXX.XXXXXXXXX.XXXXXXXXXX.XXXXXXXXXXX.XXXXXXXXXXXXXXX",
"XXXXXXXXXXXXX.XXXXXXXXXXXX.XXXXXXXXXXX.XXXXXXXXX.XXXXX                     XXXX.XXXXXXXXX.XXXXXXXXXX.XXXXXXXXXXX.XXXXXXXXXXXXXXX",
"XXXXXXXXXXXXX.XXXXXXXXXXXX.XXXXXXXXXXX.XXXXXXXXX.XXXXX                     XXXX.XXXXXXXXX.XXXXXXXXXX.XXXXXXXXXXX.XXXXXXXXXXXXXXX",
"XXXXXXXXXXXX.XXXXXXXXXXXX.XXXXXXXXXXXX.XXXXXXXXX.XXXXX                     XXXX.XXXXXXXXX.XXXXXXXXXX.XXXXXXXXXXX.XXXXXXXXXXXXXXX",
"XXXXXXXXXXXX.XXXXXXXXXXXX.XXXXXXXXXXXX.XXXXXXXXX.XXXXX                     XXXX.XXXXXXXXX.XXXXXXXXXX.XXXXXXXXXXX.XXXXXXXXXXXXXXX",
"XXXXXXXXXXXX.XXXXXXXXXXXX.XXXXXXXXXXXX.XXXXXXXXX.XXXXX                     XXXX.XXXXXXXXX.XXXXXXXXXX.XXXXXXXXXXX.XXXXXXXXXXXXXXX",
"XXXXXXXXXXXX.XXXXXXXXXXXX.XXXXXXXXXXXX.XXXXXXXXX.XXXXX                     XXXX.XXXXXXXXX.XXXXXXXXXX.XXXXXXXXXXX.XXXXXXXXXXXXXXX",
"XXXXXXXXXXXX.XXXXXXXXXXXX.XXXXXXXXXXXX.XXXXXXXXX.XXXXX                     XXXX.XXXXXXXXX.XXXXXXXXXX.XXXXXXXXXXX.XXXXXXXXXXXXXXX",
"XXXXXXXXXXXX.XXXXXXXXXXXX.XXXXXXXXXXXX.XXXXXXXXX.XXXXX                     XXXX.XXXXXXXXX.XXXXXXXXXX.XXXXXXXXXXX.XXXXXXXXXXXXXXX",
"XXXXXXXXXXXX.XXXXXXXXXXXX.XXXXXXXXXXXX.XXXXXXXXX.XXXXX                     XXXX.XXXXXXXXX.XXXXXXXXXX.XXXXXXXXXXX.XXXXXXXXXXXXXXX",
"XXXXXXXXXXXX.XXXXXXXXXXXX.XXXXXXXXXXXX.XXXXXXXXX.XXXXX                     XXXX.XXXXXXXXX.XXXXXXXXXX.XXXXXXXXXXX.XXXXXXXXXXXXXXX",
"XXXXXXXXXXXX.XXXXXXXXXXXX.XXXXXXXXXXXX.XXXXXXXXX.XXXXX                     XXXX.XXXXXXXXX.XXXXXXXXXX.XXXXXXXXXXX.XXXXXXXXXXXXXXX",
"XXXXXXXXXXXX.XXXXXXXXXXXX.XXXXXXXXXXXX.XXXXXXXXX.XXXXX                     XXXX.XXXXXXXXX.XXXXXXXXXX.XXXXXXXXXXX.XXXXXXXXXXXXXXX",
"XXXXXXXXXXXX.XXXXXXXXXXXX.XXXXXXXXXXXX.XXXXXXXXX.XXXXX                     XXXX.XXXXXXXXX.XXXXXXXXXX.XXXXXXXXXXX.XXXXXXXXXXXXXXX",
"XXXXXXXXXXXX.XXXXXXXXXXXX.XXXXXXXXXXXX.XXXXXXXXX.XXXXX                     XXXX.XXXXXXXXX.XXXXXXXXXX.XXXXXXXXXXX.XXXXXXXXXXXXXXX",
"XXXXXXXXXXXX.XXXXXXXXXXXX.XXXXXXXXXXXX.XXXXXXXXX.XXXXX                     XXXX.XXXXXXXXX.XXXXXXXXXX.XXXXXXXXXXX.XXXXXXXXXXXXXXX",
"XXXXXXXXXXXX.XXXXXXXXXXXX.XXXXXXXXXXXX.XXXXXXXXX.XXXXX                     XXXX.XXXXXXXXX.XXXXXXXXXX.XXXXXXXXXXX.XXXXXXXXXXXXXXX",
"XXXXXXXXXXXX.XXXXXXXXXXXX.XXXXXXXXXXXX.XXXXXXXXX.XXXXX                     XXXX.XXXXXXXXX.XXXXXXXXXX.XXXXXXXXXXX.XXXXXXXXXXXXXXX",
"XXXXXXXXXXXX.XXXXXXXXXXXX.XXXXXXXXXXXX.XXXXXXXXX.XXXXX                     XXXX.XXXXXXXXX.XXXXXXXXXX.XXXXXXXXXXX.XXXXXXXXXXXXXXX",
"XXXXXXXXXXXX.XXXXXXXXXXXX.XXXXXXXXXXXX.XXXXXXXXX.XXXXX                     XXXX.XXXXXXXXX.XXXXXXXXXX.XXXXXXXXXXX.XXXXXXXXXXXXXXX",
"XXXXXXXXXXXX.XXXXXXXXXXXX.XXXXXXXXXXXX.XXXXXXXXX.XXXXX                     XXXX.XXXXXXXXX.XXXXXXXXXX.XXXXXXXXXXX.XXXXXXXXXXXXXXX",
"XXXXXXXXXXXX.XXXXXXXXXXXX.XXXXXXXXXXXX.XXXXXXXXX.XXXXX                     XXXX.XXXXXXXXX.XXXXXXXXXX.XXXXXXXXXXX.XXXXXXXXXXXXXXX",
"XXXXXXXXXXXX.XXXXXXXXXXXX.XXXXXXXXXXXX.XXXXXXXXX.XXXXX                     XXXX.XXXXXXXXX.XXXXXXXXXX.XXXXXXXXXXX.XXXXXXXXXXXXXXX",
"XXXXXXXXXXXX.XXXXXXXXXXXX.XXXXXXXXXXXX.XXXXXXXXX.XXXXX                     XXXX.XXXXXXXXX.XXXXXXXXXX.XXXXXXXXXXX.XXXXXXXXXXXXXXX",
"XXXXXXXXXXXX.XXXXXXXXXXXX.XXXXXXXXXXXX.XXXXXXXXX.XXXXX                     XXXX.XXXXXXXXX.XXXXXXXXXX.XXXXXXXXXXX.XXXXXXXXXXXXXXX",
"XXXXXXXXXXXX.XXXXXXXXXXXX.XXXXXXXXXXXX.XXXXXXXXX.XXXXX                     XXXX.XXXXXXXXX.XXXXXXXXXX.XXXXXXXXXXX.XXXXXXXXXXXXXXX",
"XXXXXXXXXXXX.XXXXXXXXXXXX.XXXXXXXXXXXX.XXXXXXXXX.XXXXX                     XXXX.XXXXXXXXX.XXXXXXXXXX.XXXXXXXXXXX.XXXXXXXXXXXXXXX",
"XXXXXXXXXXXX.XXXXXXXXXXXX.XXXXXXXXXXXX.XXXXXXXXX.XXXXX                     XXXX.XXXXXXXXX.XXXXXXXXXX.XXXXXXXXXXX.XXXXXXXXXXXXXXX",
"XXXXXXXXXXXX.XXXXXXXXXXXX.XXXXXXXXXXXX.XXXXXXXXX.XXXXX                     XXXX.XXXXXXXXX.XXXXXXXXXX.XXXXXXXXXXX.XXXXXXXXXXXXXXX",
"XXXXXXXXXXXX.XXXXXXXXXXXX.XXXXXXXXXXXX.XXXXXXXXX.XXXXX                     XXXX.XXXXXXXXX.XXXXXXXXXX.XXXXXXXXXXX.XXXXXXXXXXXXXXX",
"XXXXXXXXXXXX.XXXXXXXXXXXX.XXXXXXXXXXXX.XXXXXXXXX.XXXXX                     XXXX.XXXXXXXXX.XXXXXXXXXX.XXXXXXXXXXX.XXXXXXXXXXXXXXX",
"XXXXXXXXXXXX.XXXXXXXXXXXX.XXXXXXXXXXXX.XXXXXXXXX.XXXXX                     XXXX.XXXXXXXXX.XXXXXXXXXX.XXXXXXXXXXX.XXXXXXXXXXXXXXX",
"XXXXXXXXXXXX.XXXXXXXXXXXX.XXXXXXXXXXXX.XXXXXXXXX.XXXXX                     XXXX.XXXXXXXXX.XXXXXXXXXX.XXXXXXXXXXX.XXXXXXXXXXXXXXX",
"XXXXXXXXXXXX.XXXXXXXXXXXX.XXXXXXXXXXXX.XXXXXXXXX.XXXX++++++++++++++++++++  XXXX.XXXXXXXXX.XXXXXXXXXX.XXXXXXXXXXX.XXXXXXXXXXXXXXX",
"XXXXXXXXXXXX.XXXXXXXXXXXX.XXXXXXXXXXXX.XXXX+++++++++OOOOOOOOOOOOOOOOOOOOOOOO+++++++XXXXXX.XXXXXXXXXX.XXXXXXXXXXX.XXXXXXXXXXXXXXX",
"XXXXXXXXXXXX.XXXXXXXXXXXX.XXXXXXXXXXXX++++OOOOOOOOOOOOOOOOOOOoooOOOOOOOOOooOOOooooOOO+++X.XXXXXXXXXX.XXXXXXXXXXX.XXXXXXXXXXXXXXX",
"XXXXXXXXXXXX.XXXXXXXXXXXX.XXXXXXXX++++OOOOOOoooooOOOooooOOOOOoooOOOOOOOooooOOOooooOOOOO++++OXXXXXXXX.XXXXXXXXXXX.XXXXXXXXXXXXXXX",
"XXXXXXXXXXXX.XXXXXXXXXXXX.XXXXXXXOOOOOOOOOOooooooOOoooOooOOOOoooOOOOOOooooOOOOooOOOOOOOOOOOOOXXXXXXX.XXXXXXXXXXX.XXXXXXXXXXXXXXX",
"XXXXXXXXXXXX.XXXXXXXXXXXX.XXXXXXOOOOOOOOOOOoooOOOOOooOOooOOOooooOOOOOOooOOOOOOoooooOOOOOOOOOOOXXXXXX.XXXXXXXXXXX.XXXXXXXXXXXXXXX",
"XXXXXXXXXXXX.XXXXXXXXXXXX.XXXXXXOOOOOOOOOOOoooooOOOooooooOOOoooooOOOOOooOOOOOOoooooOOOOOOOOOOOXXXXXX.XXXXXXXXXXX.XXXXXXXXXXXXXXX",
"XXXXXXXXXXXX.XXXXXXXXXXXX.XXXXXXooOOOOOOOOOOooooOOOoooooOOOOooOoooOOOOooOOOOOOooOOOOOOOOOO++ooXXXXXX.XXXXXXXXXXX.XXXXXXXXXXXXXXX",
"XXXXXXXXXXXX.XXXXXXXXXXXX.XXXXXXXo+OOOOOOOOOOoooOOOooOOOOOOoooooooOOOOoooOOOOOoooooOOOO+ooooXXXXXXXX.XXXXXXXXXXX.XXXXXXXXXXXXXXX",
"XXXXXXXXXXXX.XXXXXXXXXXXX.XXXXXXXXooo++OOOooooooOOOooOOOOOOooooooooOOOOoooooOOoooooOOoooX.XXXXXXXXXX.XXXXXXXXXXX.XXXXXXXXXXXXXXX",
"XXXXXXXXXXXX.XXXXXXXXXXXX.XXXXXXXXXXoooooOoooooOOOOooOOOOOOooOOOooooOOOOooooOOOOO+++ooXXX.XXXXXXXXXX.XXXXXXXXXXX.XXXXXXXXXXXXXXX",
"XXXXXXXXXXXX.XXXXXXXXXXXX.XXXXXXXXXXXX.ooo++++OOOOOOOOOOOOOooOOOOoooOOOOOOO++OooooooXXXXX.XXXXXXXXXX.XXXXXXXXXXX.XXXXXXXXXXXXXXX",
"XXXXXXXXXXXX.XXXXXXXXXXXX.XXXXXXXXXXXX.XXXooooooooooooooooooooooooooooooooooooo.XXXXXXXXX.XXXXXXXXXX.XXXXXXXXXXX.XXXXXXXXXXXXXXX",
"XXXXXXXXXXXX.XXXXXXXXXXXX.XXXXXXXXXXXX.XXXXXXXXX.XXXXX                     XXXX.XXXXXXXXX.XXXXXXXXXX.XXXXXXXXXXX.XXXXXXXXXXXXXXX",
"XXXXXXXXXXXX.XXXXXXXXXXXX.XXXXXXXXXXXX.XXXXXXXXX.XXXXX                     XXXX.XXXXXXXXX.XXXXXXXXXX.XXXXXXXXXXX.XXXXXXXXXXXXXXX",
"XXXXXXXXXXXX.XXXXXXXXXXXX.XXXXXXXXXXXX.XXXXXXXXX.XXXXX                     XXXX.XXXXXXXXX.XXXXXXXXXX.XXXXXXXXXXX.XXXXXXXXXXXXXXX",
"XXXXXXXXXXXX.XXXXXXXXXXXX.XXXXXXXXXXXX.XXXXXXXXX.XXXXX                     XXXX.XXXXXXXXX.XXXXXXXXXX.XXXXXXXXXXX.XXXXXXXXXXXXXXX",
"XXXXXXXXXXXX.XXXXXXXXXXXX.XXXXXXXXXXXX.XXXXXXXXX.XXXXX                     XXXX.XXXXXXXXX.XXXXXXXXXX.XXXXXXXXXXX.XXXXXXXXXXXXXXX",
"XXXXXXXXXXXX.XXXXXXXXXXXX.XXXXXXXXXXXX.XXXXXXXXX.XXXXX                     XXXX.XXXXXXXXX.XXXXXXXXXX.XXXXXXXXXXX.XXXXXXXXXXXXXXX",
"XXXXXXXXXXXX.XXXXXXXXXXXX.XXXXXXXXXXXX.XXXXXXXXX.XXXXX                     XXXX.XXXXXXXXX.XXXXXXXXXX.XXXXXXXXXXX.XXXXXXXXXXXXXXX",
"XXXXXXXXXXXX.XXXXXXXXXXXX.XXXXXXXXXXXX.XXXXXXXXX.XXXXX                     XXXX.XXXXXXXXX.XXXXXXXXXX.XXXXXXXXXXX.XXXXXXXXXXXXXXX",
"XXXXXXXXXXXX.XXXXXXXXXXXX.XXXXXXXXXXXX.XXXXXXXXX.XXXXX                     XXXX.XXXXXXXXX.XXXXXXXXXX.XXXXXXXXXXX.XXXXXXXXXXXXXXX",
"XXXXXXXXXXXX.XXXXXXXXXXXX.XXXXXXXXXXXX.XXXXXXXXX.XXXXX                     XXXX.XXXXXXXXX.XXXXXXXXXX.XXXXXXXXXXX.XXXXXXXXXXXXXXX",
"XXXXXXXXXXXX.XXXXXXXXXXXX.XXXXXXXXXXXX.XXXXXXXXX.XXXXX                     XXXX.XXXXXXXXX.XXXXXXXXXX.XXXXXXXXXXX.XXXXXXXXXXXXXXX",
"XXXXXXXXXXXX.XXXXXXXXXXXX.XXXXXXXXXXXX.XXXXXXXXX.XXXXX                     XXXX.XXXXXXXXX.XXXXXXXXXX.XXXXXXXXXXX.XXXXXXXXXXXXXXX",
"XXXXXXXXXXXX.XXXXXXXXXXXX.XXXXXXXXXXXX.XXXXXXXXX.XXXXX                     XXXX.XXXXXXXXX.XXXXXXXXXX.XXXXXXXXXXX.XXXXXXXXXXXXXXX",
"XXXXXXXXXXXX.XXXXXXXXXXXX.XXXXXXXXXXXX.XXXXXXXX                                   XXXXXXX.XXXXXXXXXX.XXXXXXXXXXX.XXXXXXXXXXXXXXX",
"XXXXXXXXXXXX.XXXXXXXXXXXX.XXXXXXXXXXXX.X                                                 .XXXXXXXXXX.XXXXXXXXXXX.XXXXXXXXXXXXXXX",
"XXXXXXXXXXXX.XXXXXXXXXXXX.XXXXXXX                                                               XXXX.XXXXXXXXXXX.XXXXXXXXXXXXXXX",
"XXXXXXXXXXXX.XXXXXXXXXXXX.                                                                             XXXXXXXXX.XXXXXXXXXXXXXXX",
"XXXXXXXXXXXX.XXXXXX                                                                                           XX.XXXXXXXXXXXXXXX",
"XXXXXXXXXXX                                                                                                          XXXXXXXXXXX",
"XXXX                                                                                                                        XXXX",
"                                                                                                                                "
};
