/* XPM */
static char *door_5[] = {
/* columns rows colors chars-per-pixel */
"128 128 7 1 ",
"  c black",
". c #2C1803",
"X c #462A07",
"o c #794C15",
"O c #4C5E64",
"+ c #889295",
"@ c #AEBABE",
/* pixels */
"                                                                                                                                ",
"...                                                                                                                          ...",
".....                                                                                                                     o.....",
".....oooo                                                                                                              oooo.....",
".....ooooooo                                                                                                        ooooooo.....",
".....ooooooooXo                                                                                                 oooXooooooo.....",
".....ooooooooXooooo                                                                                          ooooooXooooooo.....",
".....ooooooooXoooooooX                                                                                    XooooooooXooooooo.....",
".....ooooooooXoooooooXooo                                                                             ooooXooooooooXooooooo.....",
".....ooooooooXoooooooXooooooX                                                                      oooooooXooooooooXooooooo.....",
".....ooooooooXoooooooXooooooXooo                                                               oooXoooooooXooooooooXooooooo.....",
".....ooooooooXoooooooXooooooXoooooX                                                         XoooooXoooooooXooooooooXooooooo.....",
".....ooooooooXoooooooXooooooXoooooXoooo                                                  oooXoooooXoooooooXooooooooXooooooo.....",
".....ooooooooXoooooooXooooooXoooooXooooXoo                                           ooXooooXoooooXoooooooXooooooooXooooooo.....",
".....ooooooooXoooooooXooooooXoooooXooooXoooXo                                     oXoooXooooXoooooXoooooooXooooooooXooooooo.....",
".....ooooooooXoooooooXooooooXoooooXooooXoooXoo                                   ooXoooXooooXoooooXoooooooXooooooooXooooooo.....",
".....ooooooooXoooooooXooooooXoooooXooooXoooXoo                                   ooXoooXooooXoooooXoooooooXooooooooXooooooo.....",
".....ooooooooXoooooooXooooooXoooooXooooXoooXoo                                   ooXoooXooooXoooooXoooooooXooooooooXooooooo.....",
".....ooooooooXoooooooXooooooXoooooXooooXoooXoo                                   ooXoooXooooXoooooXoooooooXooooooooXooooooo.....",
".....ooooooooXoooooooXooooooXoooooXooooXoooXoo                                   ooXoooXooooXoooooXoooooooXooooooooXooooooo.....",
".....ooooooooXoooooooXooooooXoooooXooooXoooXoo                                   ooXoooXooooXoooooXoooooooXooooooooXooooooo.....",
".....ooooooooXoooooooXooooooXoooooXooooXoooXoo                                   ooXoooXooooXoooooXoooooooXooooooooXooooooo.....",
".....ooooooooXoooooooXooooooXoooooXooooXoooXoo                                   ooXoooXooooXoooooXoooooooXooooooooXooooooo.....",
".....ooooooooXoooooooXooooooXoooooXooooXoooXoo                                   ooXoooXooooXoooooXoooooooXooooooooXooooooo.....",
".....ooooooooXoooooooXooooooXoooooXooooXoooXoo                                   ooXoooXooooXoooooXoooooooXooooooooXooooooo.....",
".....ooooooooXoooooooXooooooXoooooXooooXoooXoo                                   ooXoooXooooXoooooXoooooooXooooooooXooooooo.....",
".....ooooooooXoooooooXooooooXoooooXooooXoooXoo                                   ooXoooXooooXoooooXoooooooXooooooooXooooooo.....",
".....ooooooooXoooooooXooooooXoooooXooooXoooXoo                                   ooXoooXooooXoooooXoooooooXooooooooXooooooo.....",
".....ooooooooXoooooooXooooooXoooooXooooXoooXoo                                   ooXoooXooooXoooooXoooooooXooooooooXooooooo.....",
".....ooooooooXoooooooXooooooXoooooXooooXoooXoo                                   ooXoooXooooXoooooXoooooooXooooooooXooooooo.....",
".....ooooooooXoooooooXooooooXoooooXooooXoooXoo                                   ooXoooXooooXoooooXoooooooXooooooooXooooooo.....",
".....ooooooooXoooooooXooooooXoooooXooooXoooXoo                                   ooXoooXooooXoooooXoooooooXooooooooXooooooo.....",
".....ooooooooXoooooooXooooooXoooooXooooXoooXoo                                   ooXoooXooooXoooooXoooooooXooooooooXooooooo.....",
".....ooooooooXoooooooXooooooXoooooXooooXoooXoo                                   ooXoooXooooXoooooXoooooooXooooooooXooooooo.....",
".....ooooooooXoooooooXooooooXoooooXooooXoooXoo                                   ooXoooXooooXoooooXoooooooXooooooooXooooooo.....",
".....ooooooooXoooooooXooooooXoooooXooooXoooXoo                                   ooXoooXooooXoooooXoooooooXooooooooXooooooo.....",
".....ooooooooXoooooooXooooooXoooooXooooXoooXoo                                   ooXoooXooooXoooooXoooooooXooooooooXooooooo.....",
".....ooooooooXoooooooXooooooXoooooXooooXoooXoo                                   ooXoooXooooXoooooXoooooooXooooooooXooooooo.....",
".....ooooooooXoooooooXooooooXoooooXooooXoooXoo                                   ooXoooXooooXoooooXoooooooXooooooooXooooooo.....",
".....ooooooooXoooooooXooooooXoooooXooooXoooXoo                                   ooXoooXooooXoooooXoooooooXooooooooXooooooo.....",
".....ooooooooXoooooooXooooooXoooooXooooXoooXoo                                   ooXoooXooooXoooooXoooooooXooooooooXooooooo.....",
".....ooooooooXoooooooXooooooXoooooXooooXoooXoo                                   ooXoooXooooXoooooXoooooooXooooooooXooooooo.....",
".....ooooooooXoooooooXooooooXoooooXooooXoooXoo                                   ooXoooXooooXoooooXoooooooXooooooooXooooooo.....",
".....ooooooooXoooooooXooooooXoooooXooooXoooXoo                                   ooXoooXooooXoooooXoooooooXooooooooXooooooo.....",
".....ooooooooXoooooooXooooooXoooooXooooXoooXoo                                   ooXoooXooooXoooooXoooooooXooooooooXooooooo.....",
".....ooooooooXoooooooXooooooXoooooXooooXoooXoo                                   ooXoooXooooXoooooXoooooooXooooooooXooooooo.....",
".....ooooooooXoooooooXooooooXoooooXooooXoooXoo                                   ooXoooXooooXoooooXoooooooXooooooooXooooooo.....",
".....ooooooooXoooooooXooooooXoooooXooooXoooXoo                                   ooXoooXooooXoooooXoooooooXooooooooXooooooo.....",
".....ooooooooXoooooooXooooooXoooooXooooXoooXoo                                   ooXoooXooooXoooooXoooooooXooooooooXooooooo.....",
".....ooooooooXoooooooXooooooXoooooXooooXoooXoo                                   ooXoooXooooXoooooXoooooooXooooooooXooooooo.....",
".....ooooooooXoooooooXooooooXoooooXooooXoooXoo                                   ooXoooXooooXoooooXoooooooXooooooooXooooooo.....",
".....ooooooooXoooooooXooooooXoooooXooooXoooXoo                                   ooXoooXooooXoooooXoooooooXooooooooXooooooo.....",
".....ooooooooXoooooooXooooooXoooooXooooXoooXoo                                   ooXoooXooooXoooooXoooooooXooooooooXooooooo.....",
".....ooooooooXoooooooXooooooXoooooXooooXoooXoo                                   ooXoooXooooXoooooXoooooooXooooooooXooooooo.....",
".....ooooooooXoooooooXooooooXoooooXooooXoooXoo                                   ooXoooXooooXoooooXoooooooXooooooooXooooooo.....",
".....ooooooooXoooooooXooooooXoooooXooooXoooXoo                                   ooXoooXooooXoooooXoooooooXooooooooXooooooo.....",
".....ooooooooXoooooooXooooooXoooooXooooXoooXoo                                   ooXoooXooooXoooooXoooooooXooooooooXooooooo.....",
".....ooooooooXoooooooXooooooXoooooXooooXoooXoo                                   ooXoooXooooXoooooXoooooooXooooooooXooooooo.....",
".....ooooooooXoooooooXooooooXoooooXooooXoooXoo                                   ooXoooXooooXoooooXoooooooXooooooooXooooooo.....",
".....ooooooooXoooooooXooooooXoooooXooooXoooXoo                                   ooXoooXooooXoooooXoooooooXooooooooXooooooo.....",
".....ooooooooXoooooooXooooooXoooooXooooXoooXoo                                   ooXoooXooooXoooooXoooooooXooooooooXooooooo.....",
".....ooooooooXoooooooXooooooXoooooXooooXoooXoo                                   ooXoooXooooXoooooXoooooooXooooooooXooooooo.....",
".....ooooooooXoooooooXooooooXoooooXooooXoooXoo                                   ooXoooXooooXoooooXoooooooXooooooooXooooooo.....",
".....ooooooooXoooooooXooooooXoooooXooooXoooXoo                                   ooXoooXooooXoooooXoooooooXooooooooXooooooo.....",
".....ooooooooXoooooooXooooooXoooooXooooXoooXoo                                   ooXoooXooooXoooooXoooooooXooooooooXooooooo.....",
".....ooooooooXoooooooXooooooXoooooXooooXoooXoo                                   ooXoooXooooXoooooXoooooooXooooooooXooooooo.....",
".....ooooooooXoooooooXooooooXoooooXooooXoooXoo                                   ooXoooXooooXoooooXoooooooXooooooooXooooooo.....",
".....ooooooooXoooooooXooooooXoooooXooooXoooXoo                                   ooXoooXooooXoooooXoooooooXooooooooXooooooo.....",
".....ooooooooXoooooooXooooooXoooooXooooXoooXoo                                   ooXoooXooooXoooooXoooooooXooooooooXooooooo.....",
".....ooooooooXoooooooXooooooXoooooXooooXoooXoo                                   ooXoooXooooXoooooXoooooooXooooooooXooooooo.....",
".....ooooooooXoooooooXooooooXoooooXooooXoooXoo                                   ooXoooXooooXoooooXoooooooXooooooooXooooooo.....",
".....ooooooooXoooooooXooooooXoooooXooooXoooXoo                                   ooXoooXooooXoooooXoooooooXooooooooXooooooo.....",
".....ooooooooXoooooooXooooooXoooooXooooXoooXoo                                   ooXoooXooooXoooooXoooooooXooooooooXooooooo.....",
".....ooooooooXoooooooXooooooXoooooXooooXoooXoo                                   ooXoooXooooXoooooXoooooooXooooooooXooooooo.....",
".....ooooooooXoooooooXooooooXoooooXooooXoooXoo                                   ooXoooXooooXoooooXoooooooXooooooooXooooooo.....",
".....ooooooooXoooooooXooooooXoooooXooooXoooXoo                                   ooXoooXooooXoooooXoooooooXooooooooXooooooo.....",
".....ooooooooXoooooooXooooooXoooooXooooXoooXoo                                   ooXoooXooooXoooooXoooooooXooooooooXooooooo.....",
".....ooooooooXoooooooXooooooXoooooXooooXoooXoo                                   ooXoooXooooXoooooXoooooooXooooooooXooooooo.....",
".....ooooooooXoooooooXooooooXoooooXooooXoooXoo                                   ooXoooXooooXoooooXoooooooXooooooooXooooooo.....",
".....ooooooooXoooooooXooooooXoooooXooooXoooXoo                                   ooXoooXooooXoooooXoooooooXooooooooXooooooo.....",
".....ooooooooXoooooooXooooooXoooooXooooXoooXoo                                   ooXoooXooooXoooooXoooooooXooooooooXooooooo.....",
".....ooooooooXoooooooXooooooXoooooXooooXoooXoo                                   ooXoooXooooXoooooXoooooooXooooooooXooooooo.....",
".....ooooooooXoooooooXooooooXoooooXooooXoooXoo                                   ooXoooXooooXoooooXoooooooXooooooooXooooooo.....",
".....ooooooooXoooooooXooooooXoooooXooooXoooXoo                                   ooXoooXooooXoooooXoooooooXooooooooXooooooo.....",
".....ooooooooXoooooooXooooooXoooooXooooXoooXoo                                   ooXoooXooooXoooooXoooooooXooooooooXooooooo.....",
".....ooooooooXoooooooXooooooXoooooXooooXoooXoo                                   ooXoooXooooXoooooXoooooooXooooooooXooooooo.....",
".....ooooooooXoooooooXooooooXoooooXooooXoooXoo                                   ooXoooXooooXoooooXoooooooXooooooooXooooooo.....",
".....ooooooooXoooooooXooooooXoooooXooooXoooXoo                                   ooXoooXooooXoooooXoooooooXooooooooXooooooo.....",
".....ooooooooXoooooooXooooooXoooooXooooXoooXoo                                   ooXoooXooooXoooooXoooooooXooooooooXooooooo.....",
".....ooooooooXoooooooXooooooXoooooXooooXoooXoo                                   ooXoooXooooXoooooXoooooooXooooooooXooooooo.....",
".....ooooooooXoooooooXooooooXoooooXooooXoooXoo                                   ooXoooXooooXoooooXoooooooXooooooooXooooooo.....",
".....ooooooooXoooooooXooooooXoooooXooooXoooXoo       @@@@@@@@@@@@@@@@@@@@        ooXoooXooooXoooooXoooooooXooooooooXooooooo.....",
".....ooooooooXoooooooXooooooXoooooXooooXooo@@@@@@@@@++++++++++++++++++++++++@@@@@@@XoooXooooXoooooXoooooooXooooooooXooooooo.....",
".....ooooooooXoooooooXooooooXoooooXooo@@@@+++++++++++++++++++OOO+++++++++OO+++OOOO+++@@@ooooXoooooXoooooooXooooooooXooooooo.....",
".....ooooooooXoooooooXooooooXooooo@@@@++++++OOOOO+++OOOO+++++OOO+++++++OOOO+++OOOO+++++@@@@+XoooooXoooooooXooooooooXooooooo.....",
".....ooooooooXoooooooXooooooXoooo++++++++++OOOOOO++OOO+OO++++OOO++++++OOOO++++OO+++++++++++++oooooXoooooooXooooooooXooooooo.....",
".....ooooooooXoooooooXooooooXooo+++++++++++OOO+++++OO++OO+++OOOO++++++OO++++++OOOOO+++++++++++ooooXoooooooXooooooooXooooooo.....",
".....ooooooooXoooooooXooooooXooo+++++++++++OOOOO+++OOOOOO+++OOOOO+++++OO++++++OOOOO+++++++++++ooooXoooooooXooooooooXooooooo.....",
".....ooooooooXoooooooXooooooXoooOO++++++++++OOOO+++OOOOO++++OO+OOO++++OO++++++OO++++++++++@@OOooooXoooooooXooooooooXooooooo.....",
".....ooooooooXoooooooXooooooXoooOO@++++++++++OOO+++OO++++++OOOOOOO++++OOO+++++OOOOO++++@OOOOOOooooXoooooooXooooooooXooooooo.....",
".....ooooooooXoooooooXooooooXoooOOOOO@@+++OOOOOO+++OO++++++OOOOOOOO++++OOOOO++OOOOO++OOOOOOOOOooooXoooooooXooooooooXooooooo.....",
".....ooooooooXoooooooXooooooXoooOOOOOOOOO+OOOOO++++OO++++++OO+++OOOO++++OOOO+++++@@@OOOOOOOOXoooooXoooooooXooooooooXooooooo.....",
".....ooooooooXoooooooXooooooXoooOOOOOOOOOO@@@@+++++++++++++OO++++OOO+++++++@@+OOOOOOOOOOOOOOXoooooXoooooooXooooooooXooooooo.....",
".....ooooooooXoooooooXooooooXoooooOOOOOOOOOOOOOOOOOOOOOOOOOOOOOOOOOOOOOOOOOOOOOOOOOOOOOOOOooXoooooXoooooooXooooooooXooooooo.....",
".....ooooooooXoooooooXooooooXoooooXooOOOOOOOOOOOOOOOOOOOOOOOOOOOOOOOOOOOOOOOOOOOOOOOOOOOooooXoooooXoooooooXooooooooXooooooo.....",
".....ooooooooXoooooooXooooooXoooooXooooXoooXoOOOOOOOOOOOOOOOOOOOOOOOOOOOOOOOOOOOOOoXoooXooooXoooooXoooooooXooooooooXooooooo.....",
".....ooooooooXoooooooXooooooXoooooXooooXoooXoo          OOOOOOOOOOOOOOOOOOO      ooXoooXooooXoooooXoooooooXooooooooXooooooo.....",
".....ooooooooXoooooooXooooooXoooooXooooXoooXoo                                   ooXoooXooooXoooooXoooooooXooooooooXooooooo.....",
".....ooooooooXoooooooXooooooXoooooXooooXoooXoo                                   ooXoooXooooXoooooXoooooooXooooooooXooooooo.....",
".....ooooooooXoooooooXooooooXoooooXooooXoooXoo                                   ooXoooXooooXoooooXoooooooXooooooooXooooooo.....",
".....ooooooooXoooooooXooooooXoooooXooooXoooXoo                                   ooXoooXooooXoooooXoooooooXooooooooXooooooo.....",
".....ooooooooXoooooooXooooooXoooooXooooXoooXoo                                   ooXoooXooooXoooooXoooooooXooooooooXooooooo.....",
".....ooooooooXoooooooXooooooXoooooXooooXoooXoo                                   ooXoooXooooXoooooXoooooooXooooooooXooooooo.....",
".....ooooooooXoooooooXooooooXoooooXooooXoooXoo                                   ooXoooXooooXoooooXoooooooXooooooooXooooooo.....",
".....ooooooooXoooooooXooooooXoooooXooooXoooXoo                                   ooXoooXooooXoooooXoooooooXooooooooXooooooo.....",
".....ooooooooXoooooooXooooooXoooooXooooXoooXoo                                   ooXoooXooooXoooooXoooooooXooooooooXooooooo.....",
".....ooooooooXoooooooXooooooXoooooXooooXoooXoo                                   ooXoooXooooXoooooXoooooooXooooooooXooooooo.....",
".....ooooooooXoooooooXooooooXoooooXooooXooo                                         oooXooooXoooooXoooooooXooooooooXooooooo.....",
".....ooooooooXoooooooXooooooXoooooXoooo                                                  oooXoooooXoooooooXooooooooXooooooo.....",
".....ooooooooXoooooooXooooooXooooo                                                           oooooXoooooooXooooooooXooooooo.....",
".....ooooooooXoooooooXooooooXo                                                                    XoooooooXooooooooXooooooo.....",
".....ooooooooXoooooooXooo                                                                             ooooXooooooooXooooooo.....",
".....ooooooooXooooooo                                                                                      ooooooooXooooooo.....",
".....ooooooooXoo                                                                                               ooooXooooooo.....",
".....ooooooo                                                                                                        ooooooo.....",
".....oo                                                                                                                  oo.....",
"...                                                                                                                          ...",
"                                                                                                                                "
};
