/* XPM */
static char *door_3[] = {
/* columns rows colors chars-per-pixel */
"128 128 7 1 ",
"  c black",
". c #462A07",
"X c #794C15",
"o c #4C5E64",
"O c #D1D039",
"+ c #889295",
"@ c #AEBABE",
/* pixels */
"                                                                                                                                ",
"XXXXXXXX                                                                                                                XXXXXXXX",
"XXXXXXXXXXXXX.XXXXXXXXXX                                                                                XXXXXXXX.XXXXXXXXXXXXXXX",
"XXXXXXXXXXXXX.XXXXXXXXXXXX.XXXXXXXXXXX.X                                                X.XXXXXXXXXX.XXXXXXXXXXX.XXXXXXXXXXXXXXX",
"XXXXXXXXXXXXX.XXXXXXXXXXXX.XXXXXXXXXXX.XXXXXXXXX.XXXXXXX                .XXXXXX.XXXXXXXXX.XXXXXXXXXX.XXXXXXXXXXX.XXXXXXXXXXXXXXX",
"XXXXXXXXXXXXX.XXXXXXXXXXXX.XXXXXXXXXXX.XXXXXXXXX.XXXXXXX.XXXX       XXXX.XXXXXX.XXXXXXXXX.XXXXXXXXXX.XXXXXXXXXXX.XXXXXXXXXXXXXXX",
"XXXXXXXXXXXXX.XXXXXXXXXXXX.XXXXXXXXXXX.XXXXXXXXX.XXXXXXX.XXXX       XXXX.XXXXXX.XXXXXXXXX.XXXXXXXXXX.XXXXXXXXXXX.XXXXXXXXXXXXXXX",
"XXXXXXXXXXXXX.XXXXXXXXXXXX.XXXXXXXXXXX.XXXXXXXXX.XXXXXXX.XXXX       XXXX.XXXXXX.XXXXXXXXX.XXXXXXXXXX.XXXXXXXXXXX.XXXXXXXXXXXXXXX",
"XXXXXXXXXXXXX.XXXXXXXXXXXX.XXXXXXXXXXX.XXXXXXXXX.XXXXXXX.XXXX       XXXX.XXXXXX.XXXXXXXXX.XXXXXXXXXX.XXXXXXXXXXX.XXXXXXXXXXXXXXX",
"XXXXXXXXXXXXX.XXXXXXXXXXXX.XXXXXXXXXXX.XXXXXXXXX.XXXXXXX.XXXX       XXXX.XXXXXX.XXXXXXXXX.XXXXXXXXXX.XXXXXXXXXXX.XXXXXXXXXXXXXXX",
"XXXXXXXXXXXXX.XXXXXXXXXXXX.XXXXXXXXXXX.XXXXXXXXX.XXXXXXX.XXXX       XXXX.XXXXXX.XXXXXXXXX.XXXXXXXXXX.XXXXXXXXXXX.XXXXXXXXXXXXXXX",
"XXXXXXXXXXXXX.XXXXXXXXXXXX.XXXXXXXXXXX.XXXXXXXXX.XXXXXXX.XXXX       XXXX.XXXXXX.XXXXXXXXX.XXXXXXXXXX.XXXXXXXXXXX.XXXXXXXXXXXXXXX",
"XXXXXXXXXXXXX.XXXXXXXXXXXX.XXXXXXXXXXX.XXXXXXXXX.XXXXXXX.XXXX       XXXX.XXXXXX.XXXXXXXXX.XXXXXXXXXX.XXXXXXXXXXX.XXXXXXXXXXXXXXX",
"XXXXXXXXXXXXX.XXXXXXXXXXXX.XXXXXXXXXXX.XXXXXXXXX.XXXXXXX.XXXX       XXXX.XXXXXX.XXXXXXXXX.XXXXXXXXXX.XXXXXXXXXXX.XXXXXXXXXXXXXXX",
"XXXXXXXXXXXXX.XXXXXXXXXXXX.XXXXXXXXXXX.XXXXXXXXX.XXXXXXX.XXXX       XXXX.XXXXXX.XXXXXXXXX.XXXXXXXXXX.XXXXXXXXXXX.XXXXXXXXXXXXXXX",
"XXXXXXXXXXXXX.XXXXXXXXXXXX.XXXXXXXXXXX.XXXXXXXXX.XXXXXXX.XXXX       XXXX.XXXXXX.XXXXXXXXX.XXXXXXXXXX.XXXXXXXXXXX.XXXXXXXXXXXXXXX",
"XXXXXXXXXXXXX.XXXXXXXXXXXX.XXXXXXXXXXX.XXXXXXXXX.XXXXXXX.XXXX       XXXX.XXXXXX.XXXXXXXXX.XXXXXXXXXX.XXXXXXXXXXX.XXXXXXXXXXXXXXX",
"XXXXXXXXXXXXX.XXXXXXXXXXXX.XXXXXXXXXXX.XXXXXXXXX.XXXXXXX.XXXX       XXXX.XXXXXX.XXXXXXXXX.XXXXXXXXXX.XXXXXXXXXXX.XXXXXXXXXXXXXXX",
"XXXXXXXXXXXXX.XXXXXXXXXXXX.XXXXXXXXXXX.XXXXXXXXX.XXXXXXX.XXXX       XXXX.XXXXXX.XXXXXXXXX.XXXXXXXXXX.XXXXXXXXXXX.XXXXXXXXXXXXXXX",
"XXXXXXXXXXXXX.XXXXXXXXXXXX.XXXXXXXXXXX.XXXXXXXXX.XXXXXXX.XXXX       XXXX.XXXXXX.XXXXXXXXX.XXXXXXXXXX.XXXXXXXXXXX.XXXXXXXXXXXXXXX",
"XXXXXXXXXXXXX.XXXXXXXXXXXX.XXXXXXXXXXX.XXXXXXXXX.XXXXXXX.XXXX       XXXX.XXXXXX.XXXXXXXXX.XXXXXXXXXX.XXXXXXXXXXX.XXXXXXXXXXXXXXX",
"XXXXXXXXXXXXX.XXXXXXXXXXXX.XXXXXXXXXXX.XXXXXXXXX.XXXXXXX.XXXX       XXXX.XXXXXX.XXXXXXXXX.XXXXXXXXXX.XXXXXXXXXXX.XXXXXXXXXXXXXXX",
"XXXXXXXXXXXXX.XXXXXXXXXXXX.XXXXXXXXXXX.XXXXXXXXX.XXXXXXX.XXXX       XXXX.XXXXXX.XXXXXXXXX.XXXXXXXXXX.XXXXXXXXXXX.XXXXXXXXXXXXXXX",
"XXXXXXXXXXXXX.XXXXXXXXXXXX.XXXXXXXXXXX.XXXXXXXXX.XXXXXXX.XXXX       XXXX.XXXXXX.XXXXXXXXX.XXXXXXXXXX.XXXXXXXXXXX.XXXXXXXXXXXXXXX",
"XXXXXXXXXXXXX.XXXXXXXXXXXX.XXXXXXXXXXX.XXXXXXXXX.XXXXXXX.XXXX       XXXX.XXXXXX.XXXXXXXXX.XXXXXXXXXX.XXXXXXXXXXX.XXXXXXXXXXXXXXX",
"XXXXXXXXXXXXX.XXXXXXXXXXXX.XXXXXXXXXXX.XXXXXXXXX.XXXXXXX.XXXX       XXXX.XXXXXX.XXXXXXXXX.XXXXXXXXXX.XXXXXXXXXXX.XXXXXXXXXXXXXXX",
"XXXXXXXXXXXXX.XXXXXXXXXXXX.XXXXXXXXXXX.XXXXXXXXX.XXXXXXX.XXXX       XXXX.XXXXXX.XXXXXXXXX.XXXXXXXXXX.XXXXXXXXXXX.XXXXXXXXXXXXXXX",
"XXXXXXXXXXXXX.XXXXXXXXXXXX.XXXXXXXXXXX.XXXXXXXXX.XXXXXXX.XXXX       XXXX.XXXXXX.XXXXXXXXX.XXXXXXXXXX.XXXXXXXXXXX.XXXXXXXXXXXXXXX",
"XXXXXXXXXXXXX.XXXXXXXXXXXX.XXXXXXXXXXX.XXXXXXXXX.XXXXXXX.XXXX       XXXX.XXXXXX.XXXXXXXXX.XXXXXXXXXX.XXXXXXXXXXX.XXXXXXXXXXXXXXX",
"XXXXXXXXXXXXX.XXXXXXXXXXXX.XXXXXXXXXXX.XXXXXXXXX.XXXXXXX.XXXX       XXXX.XXXXXX.XXXXXXXXX.XXXXXXXXXX.XXXXXXXXXXX.XXXXXXXXXXXXXXX",
"XXXXXXXXXXXXX.XXXXXXXXXXXX.XXXXXXXXXXX.XXXXXXXXX.XXXXXXX.XXXX       XXXX.XXXXXX.XXXXXXXXX.XXXXXXXXXX.XXXXXXXXXXX.XXXXXXXXXXXXXXX",
"XXXXXXXXXXXXX.XXXXXXXXXXXX.XXXXXXXXXXX.XXXXXXXXX.XXXXXXX.XXXX       XXXX.XXXXXX.XXXXXXXXX.XXXXXXXXXX.XXXXXXXXXXX.XXXXXXXXXXXXXXX",
"XXXXXXXXXXXXX.XXXXXXXXXXXX.XXXXXXXXXXX.XXXXXXXXX.XXXXXXX.XXXX       XXXX.XXXXXX.XXXXXXXXX.XXXXXXXXXX.XXXXXXXXXXX.XXXXXXXXXXXXXXX",
"XXXXXXXXXXXXX.XXXXXXXXXXXX.XXXXXXXXXXX.XXXXXXXXX.XXXXXXX.XXXX       XXXX.XXXXXX.XXXXXXXXX.XXXXXXXXXX.XXXXXXXXXXX.XXXXXXXXXXXXXXX",
"XXXXXXXXXXXXX.XXXXXXXXXXXX.XXXXXXXXXXX.XXXXXXXXX.XXXXXXX.XXXX       XXXX.XXXXXX.XXXXXXXXX.XXXXXXXXXX.XXXXXXXXXXX.XXXXXXXXXXXXXXX",
"XXXXXXXXXXXXX.XXXXXXXXXXXX.XXXXXXXXXXX.XXXXXXXXX.XXXXXXX.XXXX       XXXX.XXXXXX.XXXXXXXXX.XXXXXXXXXX.XXXXXXXXXXX.XXXXXXXXXXXXXXX",
"XXXXXXXXXXXXX.XXXXXXXXXXXX.XXXXXXXXXXX.XXXXXXXXX.XXXXXXX.XXXX       XXXX.XXXXXX.XXXXXXXXX.XXXXXXXXXX.XXXXXXXXXXX.XXXXXXXXXXXXXXX",
"XXXXXXXXXXXXX.XXXXXXXXXXXX.XXXXXXXXXXX.XXXXXXXXX.XXXXXXX.XXXX       XXXX.XXXXXX.XXXXXXXXX.XXXXXXXXXX.XXXXXXXXXXX.XXXXXXXXXXXXXXX",
"XXXXXXXXXXXXX.XXXXXXXXXXXX.XXXXXXXXXXX.XXXXXXXXX.XXXXXXX.XXXX       XXXX.XXXXXX.XXXXXXXXX.XXXXXXXXXX.XXXXXXXXXXX.XXXXXXXXXXXXXXX",
"XXXXXXXXXXXXX.XXXXXXXXXXXX.XXXXXXXXXXX.XXXXXXXXX.XXXXXXX.XXXX       XXXX.XXXXXX.XXXXXXXXX.XXXXXXXXXX.XXXXXXXXXXX.XXXXXXXXXXXXXXX",
"XXXXXXXXXXXXX.XXXXXXXXXXXX.XXXXXXXXXXX.XXXXXXXXX.XXXXXXX.XXXX       XXXX.XXXXXX.XXXXXXXXX.XXXXXXXXXX.XXXXXXXXXXX.XXXXXXXXXXXXXXX",
"XXXXXXXXXXXXX.XXXXXXXXXXXX.XXXXXXXXXXX.XXXXXXXXX.XXXXXXX.XXXX       XXXX.XXXXXX.XXXXXXXXX.XXXXXXXXXX.XXXXXXXXXXX.XXXXXXXXXXXXXXX",
"XXXXXXXXXXXXX.XXXXXXXXXXXX.XXXXXXXXXXX.XXXXXXXXX.XXXXXXX.XXXX       XXXX.XXXXXX.XXXXXXXXX.XXXXXXXXXX.XXXXXXXXXXX.XXXXXXXXXXXXXXX",
"XXXXXXXXXXXXX.XXXXXXXXXXXX.XXXXXXXXXXX.XXXXXXXXX.XXXXXXX.XXXX       XXXX.XXXXXX.XXXXXXXXX.XXXXXXXXXX.XXXXXXXXXXX.XXXXXXXXXXXXXXX",
"XXXXXXXXXXXXX.XXXXXXXXXXXX.XXXXXXXXXXX.XXXXXXXXX.XXXXXXX.XXXX       XXXX.XXXXXX.XXXXXXXXX.XXXXXXXXXX.XXXXXXXXXXX.XXXXXXXXXXXXXXX",
"XXXXXXXXXXXXX.XXXXXXXXXXXX.XXXXXXXXXXX.XXXXXXXXX.XXXXXXX.XXXX       XXXX.XXXXXX.XXXXXXXXX.XXXXXXXXXX.XXXXXXXXXXX.XXXXXXXXXXXXXXX",
"XXXXXXXXXXXXX.XXXXXXXXXXXX.XXXXXXXXXXX.XXXXXXXXX.XXXXXXX.XXXX       XXXX.XXXXXX.XXXXXXXXX.XXXXXXXXXX.XXXXXXXXXXX.XXXXXXXXXXXXXXX",
"XXXXXXXXXXXXX.XXXXXXXXXXXX.XXXXXXXXXXX.XXXXXXXXX.XXXXXXX.XXXX       XXXX.XXXXXX.XXXXXXXXX.XXXXXXXXXX.XXXXXXXXXXX.XXXXXXXXXXXXXXX",
"XXXXXXXXXXXXX.XXXXXXXXXXXX.XXXXXXXXXXX.XXXXXXXXX.XXXXXXX.XXXX       XXXX.XXXXXX.XXXXXXXXX.XXXXXXXXXX.XXXXXXXXXXX.XXXXXXXXXXXXXXX",
"XXXXXXXXXXXXX.XXXXXXXXXXXX.XXXXXXXXXXX.XXXXXXXXX.XXXXXXX.XXXX       XXXX.XXXXXX.XXXXXXXXX.XXXXXXXXXX.XXXXXXXXXXX.XXXXXXXXXXXXXXX",
"XXXXXXXXXXXXX.XXXXXXXXXXXX.XXXXXXXXXXX.XXXXXXXXX.XXXXXXX.XXXX       XXXX.XXXXXX.XXXXXXXXX.XXXXXXXXXX.XXXXXXXXXXX.XXXXXXXXXXXXXXX",
"XXXXXXXXXXXXX.XXXXXXXXXXXX.XXXXXXXXXXX.XXXXXXXXX.XXXXXXX.XXXX       XXXX.XXXXXX.XXXXXXXXX.XXXXXXXXXX.XXXXXXXXXXX.XXXXXXXXXXXXXXX",
"XXXXXXXXXXXXX.XXXXXXXXXXXX.XXXXXXXXXXX.XXXXXXXXX.XXXXXXX.XXXX       XXXX.XXXXXX.XXXXXXXXX.XXXXXXXXXX.XXXXXXXXXXX.XXXXXXXXXXXXXXX",
"XXXXXXXXXXXXX.XXXXXXXXXXXX.XXXXXXXXXXX.XXXXXXXXX.XXXXXXX.XXXX       XXXX.XXXXXX.XXXXXXXXX.XXXXXXXXXX.XXXXXXXXXXX.XXXXXXXXXXXXXXX",
"XXXXXXXXXXXXX.XXXXXXXXXXXX.XXXXXXXXXXX.XXXXXXXXX.XXXXXXX.XXXX       XXXX.XXXXXX.XXXXXXXXX.XXXXXXXXXX.XXXXXXXXXXX.XXXXXXXXXXXXXXX",
"XXXXXXXXXXXXX.XXXXXXXXXXXX.XXXXXXXXXXX.XXXXXXXXX.XXXXXXX.XXXX       XXXX.XXXXXX.XXXXXXXXX.XXXXXXXXXX.XXXXXXXXXXX.XXXXXXXXXXXXXXX",
"XXXXXXXXXXXXX.XXXXXXXXXXXX.XXXXXXXXXXX.XXXXXXXXX.XXXXXXX.XXXX       XXXX.XXXXXX.XXXXXXXXX.XXXXXXXXXX.XXXXXXXXXXX.XXXXXXXXXXXXXXX",
"XXXXXXXXXXXXX.XXXXXXXXXXXX.XXXXXXXXXXX.XXXXXXXXX.XXXXXXX.XXXX       XXXX.XXXXXX.XXXXXXXXX.XXXXXXXXXX.XXXXXXXXXXX.XXXXXXXXXXXXXXX",
"XXXXXXXXXXXXX.XXXXXXXXXXXX.XXXXXXXXXXX.XXXXXXXXX.XXXXXXX.XXXX       XXXX.XXXXXX.XXXXXXXXX.XXXXXXXXXX.XXXXXXXXXXX.XXXXXXXXXXXXXXX",
"XXXXXXXXXXXXX.XXXXXXXXXXXX.XXXXXXXXXXX.XXXXXXXXX.XXXXXXX.XXXX       XXXX.XXXXXX.XXXXXXXXX.XXXXXXXXXX.XXXXXXXXXXX.XXXXXXXXXXXXXXX",
"XXXXXXXXXXXXX.XXXXXXXXXXXX.XXXXXXXXXXX.XXXXXXXXX.XXXXXXX.XXXX       XXXX.XXXXXX.XXXXXXXXX.XXXXXXXXXX.XXXXXXXXXXX.XXXXXXXXXXXXXXX",
"XXXXXXXXXXXXX.XXXXXXXXXXXX.XXXXXXXXXXX.XXXXXXXXX.XXXXXXX.XXXX       XXXX.XXXXXX.XXXXXXXXX.XXXXXXXXXX.XXXXXXXXXXX.XXXXXXXXXXXXXXX",
"XXXXXXXXXXXXX.XXXXXXXXXXXX.XXXXXXXXXXX.XXXXXXXXX.XXXXXXX.XXXX       XXXX.XXXXXX.XXXXXXXXX.XXXXXXXXXX.XXXXXXXXXXX.XXXXXXXXXXXXXXX",
"XXXXXXXXXXXXX.XXXXXXXXXXXX.XXXXXXXXXXX.XXXXXXXXX.XXXXXXX.XXXX       XXX.XXXXXXX.XXXXXXXXX.XXXXXXXXXX.XXXXXXXXXXX.XXXXXXXXXXXXXXX",
"XXXXXXXXXXXX.XXXXXXXXXXXX.XXXXXXXXXXXX.XXXXXXXXX.XXXXXXX.XXXX       XXX.XXXXXXX.XXXXXXXXX.XXXXXXXXXX.XXXXXXXXXXX.XXXXXXXXXXXXXXX",
"XXXXXXXXXXXX.XXXXXXXXXXXX.XXXXXXXXXXXX.XXXXXXXXX.XXXXXXX.XXXX       XXX.XXXXXXX.XXXXXXXXX.XXXXXXXXXX.XXXXXXXXXXX.XXXXXXXXXXXXXXX",
"XXXXXXXXXXXX.XXXXXXXXXXXX.XXXXXXXXXXXX.XXXXXXXXX.XXXXXXX.XXXX       XXX.XXXXXXX.XXXXXXXXX.XXXXXXXXXX.XXXXXXXXXXX.XXXXXXXXXXXXXXX",
"XXXXXXXXXXXX.XXXXXXXXXXXX.XXXXXXXXXXXX.XXXXXXXXX.XXXXXXX.XXXX       XXX.XXXXXXX.XXXXXXXXX.XXXXXXXXXX.XXXXXXXXXXX.XXXXXXXXXXXXXXX",
"XXXXXXXXXXXX.XXXXXXXXXXXX.XXXXXXXXXXXX.XXXXXXXXX.XXXXXXX.XXXX       XXX.XXXXXXX.XXXXXXXXX.XXXXXXXXXX.XXXXXXXXXXX.XXXXXXXXXXXXXXX",
"XXXXXXXXXXXX.XXXXXXXXXXXX.XXXXXXXXXXXX.XXXXXXXXX.XXXXXXX.XXXX       XXX.XXXXXXX.XXXXXXXXX.XXXXXXXXXX.XXXXXXXXXXX.XXXXXXXXXXXXXXX",
"XXXXXXXXXXXX.XXXXXXXXXXXX.XXXXXXXXXXXX.XXXXXXXXX.XXXXXXX.XXXX       XXX.XXXXXXX.XXXXXXXXX.XXXXXXXXXX.XXXXXXXXXXX.XXXXXXXXXXXXXXX",
"XXXXXXXXXXXX.XXXXXXXXXXXX.XXXXXXXXXXXX.XXXXXXXXX.XXXXXXX.XXXX       XXX.XXXXXXX.XXXXXXXXX.XXXXXXXXXX.XXXXXXXXXXX.XXXXXXXXXXXXXXX",
"XXXXXXXXXXXX.XXXXXXXXXXXX.XXXXXXXXXXXX.XXXXXXXXX.XXXXXXX.XXXX       XXX.XXXXXXX.XXXXXXXXX.XXXXXXXXXX.XXXXXXXXXXX.XXXXXXXXXXXXXXX",
"XXXXXXXXXXXX.XXXXXXXXXXXX.XXXXXXXXXXXX.XXXXXXXXX.XXXXXXX.XXXX       XXX.XXXXXXX.XXXXXXXXX.XXXXXXXXXX.XXXXXXXXXXX.XXXXXXXXXXXXXXX",
"XXXXXXXXXXXX.XXXXXXXXXXXX.XXXXXXXXXXXX.XXXXXXXXX.XXXXXXX.XXXX       XXX.XXXXXXX.XXXXXXXXX.XXXXXXXXXX.XXXXXXXXXXX.XXXXXXXXXXXXXXX",
"XXXXXXXXXXXX.XXXXXXXXXXXX.XXXXXXXXXXXX.XXXXXXXXX.XXXXXXX.XXXX       XXX.XXXXXXX.XXXXXXXXX.XXXXXXXXXX.XXXXXXXXXXX.XXXXXXXXXXXXXXX",
"XXXXXXXXXXXX.XXXXXXXXXXXX.XXXXXXXXXXXX.XXXXXXXXX.XXXXXXX.XXXX       XXX.XXXXXXX.XXXXXXXXX.XXXXXXXXXX.XXXXXXXXXXX.XXXXXXXXXXXXXXX",
"XXXXXXXXXXXX.XXXXXXXXXXXX.XXXXXXXXXXXX.XXXXXXXXX.XXXXXXX.XXXX       XXX.XXXXXXX.XXXXXXXXX.XXXXXXXXXX.XXXXXXXXXXX.XXXXXXXXXXXXXXX",
"XXXXXXXXXXXX.XXXXXXXXXXXX.XXXXXXXXXXXX.XXXXXXXXX.XXXXXXX.XXXX       XXX.XXXXXXX.XXXXXXXXX.XXXXXXXXXX.XXXXXXXXXXX.XXXXXXXXXXXXXXX",
"XXXXXXXXXXXX.XXXXXXXXXXXX.XXXXXXXXXXXX.XXXXXXXXX.XXXXXXX.XXXX       XXX.XXXXXXX.XXXXXXXXX.XXXXXXXXXX.XXXXXXXXXXX.XXXXXXXXXXXXXXX",
"XXXXXXXXXXXX.XXXXXXXXXXXX.XXXXXXXXXXXX.XXXXXXXXX.XXXXXXX.XXXX       XXX.XXXXXXX.XXXXXXXXX.XXXXXXXXXX.XXXXXXXXXXX.XXXXXXXXXXXXXXX",
"XXXXXXXXXXXX.XXXXXXXXXXXX.XXXXXXXXXXXX.XXXXXXXXX.XXXXXXX.XXXX       XXX.XXXXXXX.XXXXXXXXX.XXXXXXXXXX.XXXXXXXXXXX.XXXXXXXXXXXXXXX",
"XXXXXXXXXXXX.XXXXXXXXXXXX.XXXXXXXXXXXX.XXXXXXXXX.XXXXXXX.XXXX       XXX.XXXXXXX.XXXXXXXXX.XXXXXXXXXX.XXXXXXXXXXX.XXXXXXXXXXXXXXX",
"XXXXXXXXXXXX.XXXXXXXXXXXX.XXXXXXXXXXXX.XXXXXXXXX.XXXXXXX.XXXX       XXX.XXXXXXX.XXXXXXXXX.XXXXXXXXXX.XXXXXXXXXXX.XXXXXXXXXXXXXXX",
"XXXXXXXXXXXX.XXXXXXXXXXXX.XXXXXXXXXXXX.XXXXXXXXX.XXXXXXX.XXXX       XXX.XXXXXXX.XXXXXXXXX.XXXXXXXXXX.XXXXXXXXXXX.XXXXXXXXXXXXXXX",
"XXXXXXXXXXXX.XXXXXXXXXXXX.XXXXXXXXXXXX.XXXXXXXXX.XXXXXXX.XXXX       XXX.XXXXXXX.XXXXXXXXX.XXXXXXXXXX.XXXXXXXXXXX.XXXXXXXXXXXXXXX",
"XXXXXXXXXXXX.XXXXXXXXXXXX.XXXXXXXXXXXX.XXXXXXXXX.XXXXXXX.XXXX       XXX.XXXXXXX.XXXXXXXXX.XXXXXXXXXX.XXXXXXXXXXX.XXXXXXXXXXXXXXX",
"XXXXXXXXXXXX.XXXXXXXXXXXX.XXXXXXXXXXXX.XXXXXXXXX.XXXXXXX.XXXX       XXX.XXXXXXX.XXXXXXXXX.XXXXXXXXXX.XXXXXXXXXXX.XXXXXXXXXXXXXXX",
"XXXXXXXXXXXX.XXXXXXXXXXXX.XXXXXXXXXXXX.XXXXXXXXX.XXXXXXX.XXXX       XXX.XXXXXXX.XXXXXXXXX.XXXXXXXXXX.XXXXXXXXXXX.XXXXXXXXXXXXXXX",
"XXXXXXXXXXXX.XXXXXXXXXXXX.XXXXXXXXXXXX.XXXXXXXXX.XXXXXXX.XXXX       XXX.XXXXXXX.XXXXXXXXX.XXXXXXXXXX.XXXXXXXXXXX.XXXXXXXXXXXXXXX",
"XXXXXXXXXXXX.XXXXXXXXXXXX.XXXXXXXXXXXX.XXXXXXXXX.XXXXXXX.XXXX       XXX.XXXXXXX.XXXXXXXXX.XXXXXXXXXX.XXXXXXXXXXX.XXXXXXXXXXXXXXX",
"XXXXXXXXXXXX.XXXXXXXXXXXXOXXXXXXXXXXXX.XXXXXXXXX.XXXXXXX.XXXX       XXX.XXXXXXX.XXXXXXXXX.XXXXXXXXXX.XXXXXXXXXXX.XXXXXXXXXXXXXXX",
"XXXXXXXXXXXX.XXXXXXXXXXXX.OXXXXXXXXXXX.XXXXXXXXX.XXXXXXX.XXXX       XXX.XXXXXXX.XXXXXXXXX.XXXXXXXXXX.XXXXXXXXXXX.XXXXXXXXXXXXXXX",
"XXXXXXXXXXXX.XXXXXXXXXXXX.XOXXXXXXXXXX.XXXXXXXXX.XXXXXXX.XXXX       XXX.XXXXXXX.XXXXXXXXX.XXXXXXXXXX.XXOXXXXXXXX.XXXXXXXXXXXXXXX",
"XXXXXXXXXXXX.XXXXXXXXXXXX.XXOXXXXXXXXX.XXXXXXXXX.XXXX@@@@@@@@@@@@@@@@@@@@XXXXXX.XXXXXXXXX.XXXXXXXXXX.OOXXXXXXXXX.XXXXXXXXXXXXXXX",
"XXXXXXXXXXXX.XXXXXXXXXXXX.XXXOXXXXXXXX.XXXX@@@@@@@@@++++++++++++++++++++++++@@@@@@@XXXXXX.XXXXXXXXXOOXXXXXXXXXXX.XXXXXXXXXXXXXXX",
"XXXXXXXXXXXX.XXXXXXXXXXXX.XXXXXXXXXXXX@@@@+++++++++++++++++++ooo+++++++++oo+++oooo+++@@@X.XXXXXXXOOX.XXXXXXXXXXX.XXXXXXXXXXXXXXX",
"XXXXXXXXXXXX.XXXXXXXXOOOX.XXXXXXXX@@@@++++++ooooo+++oooo+++++ooo+++++++oooo+++oooo+++++@@@@+XXXXOXXX.XXXXXXXXXXX.XXXXXXXXXXXXXXX",
"XXXXXXXXXXXX.XXXXXXXXXXXOOXXXXXXX++++++++++oooooo++ooo+oo++++ooo++++++oooo++++oo+++++++++++++XXXXXXX.XXXXXXXXXXX.XXXXXXXXXXXXXXX",
"XXXXXXXXXXXX.XXXXXXXXXXXX.OOXXXX+++++++++++ooo+++++oo++oo+++oooo++++++oo++++++ooooo+++++++++++XXXXXX.OOOOOXXXXXX.XXXXXXXXXXXXXXX",
"XXXXXXXXXXXX.XXXXXXXXXXXX.XXXXXX+++++++++++ooooo+++oooooo+++ooooo+++++oo++++++ooooo+++++++++++XXXOOOOXXXXXXXXXXX.XXXXXXXXXXXXXXX",
"XXXXXXXXXXXX.XXXXXXXXXXXX.XXXXXXoo++++++++++oooo+++ooooo++++oo+ooo++++oo++++++oo++++++++++@@ooXXXXXX.XXXXXXXXXXX.XXXXXXXXXXXXXXX",
"XXXXXXXXXXXX.XXXXXXXXXXXX.XXXXXXXo@++++++++++ooo+++oo++++++ooooooo++++ooo+++++ooooo++++@ooooXXXXXXXX.XXXXXXXXXXX.XXXXXXXXXXXXXXX",
"XXXXXXXXXXXX.XXXXXXXXXXXX.XXXXXXXXooo@@+++oooooo+++oo++++++oooooooo++++ooooo++ooooo++oooX.XXXXXXXXXX.XXXXXXXXXXX.XXXXXXXXXXXXXXX",
"XXXXXXXXXXXX.XXXXXXXXXXXX.XXXXXXXXXXooooo+ooooo++++oo++++++oo+++oooo++++oooo+++++@@@ooXXX.XXXXXXXXXX.XXXXXXXXXXX.XXXXXXXXXXXXXXX",
"XXXXXXXXXXXX.XXXXXXXXXXXX.XXXXXXXXXXXX.ooo@@@@+++++++++++++oo++++ooo+++++++@@+ooooooXXXXX.XXXXXXXXXX.XXXXXXXXXXX.XXXXXXXXXXXXXXX",
"XXXXXXXXXXXX.XXXXXXXXXXXX.XXXXXXXXXXXX.XXXooooooooooooooooooooooooooooooooooooo.XXXXXXXXX.XXXXXXXXXX.XXXXXXXXXXX.XXXXXXXXXXXXXXX",
"XXXXXXXXXXXX.XXXXXXXXXXXX.XXXXXXXXXXXX.XXXXXXXXX.XXXXXXX.XXXX       XXX.XXXXXXX.XXXXXXXXX.XXXXXXXXXX.XXXXXXXXXXX.XXXXXXXXXXXXXXX",
"XXXXXXXXXXXX.XXXXXXXXXXXX.XXXXXXXXXXXX.XXXXXXXXX.XXXXXXX.XXXX       XXX.XXXXXXX.XXXXXXXXX.XXXXXXXXXX.XXXXXXXXXXX.XXXXXXXXXXXXXXX",
"XXXXXXXXXXXX.XXXXXXXXXXXX.XXXXXXXXXXXX.XXXXXXXXX.XXXXXXX.XXXX       XXX.XXXXXXX.XXXXXXXXX.XXXXXXXXXX.XXXXXXXXXXX.XXXXXXXXXXXXXXX",
"XXXXXXXXXXXX.XXXXXXXXXXXX.XXXXXXXXXXXX.XXXXXXXXX.XXXXXXX.XXXX       XXX.XXXXXXX.XXXXXXXXX.XXXXXXXXXX.XXXXXXXXXXX.XXXXXXXXXXXXXXX",
"XXXXXXXXXXXX.XXXXXXXXXXXX.XXXXXXXXXXXX.XXXXXXXXX.XXXXXXX.XXXX       XXX.XXXXXXX.XXXXXXXXX.XXXXXXXXXX.XXXXXXXXXXX.XXXXXXXXXXXXXXX",
"XXXXXXXXXXXX.XXXXXXXXXXXX.XXXXXXXXXXXX.XXXXXXXXX.XXXXXXX.XXXX       XXX.XXXXXXX.XXXXXXXXX.XXXXXXXXXX.XXXXXXXXXXX.XXXXXXXXXXXXXXX",
"XXXXXXXXXXXX.XXXXXXXXXXXX.XXXXXXXXXXXX.XXXXXXXXX.XXXXXXX.XXXX       XXX.XXXXXXX.XXXXXXXXX.XXXXXXXXXX.XXXXXXXXXXX.XXXXXXXXXXXXXXX",
"XXXXXXXXXXXX.XXXXXXXXXXXX.XXXXXXXXXXXX.XXXXXXXXX.XXXXXXX.XXXX       XXX.XXXXXXX.XXXXXXXXX.XXXXXXXXXX.XXXXXXXXXXX.XXXXXXXXXXXXXXX",
"XXXXXXXXXXXX.XXXXXXXXXXXX.XXXXXXXXXXXX.XXXXXXXXX.XXXXXXX.XXXX       XXX.XXXXXXX.XXXXXXXXX.XXXXXXXXXX.XXXXXXXXXXX.XXXXXXXXXXXXXXX",
"XXXXXXXXXXXX.XXXXXXXXXXXX.XXXXXXXXXXXX.XXXXXXXXX.XXXXXXX.XXXX       XXX.XXXXXXX.XXXXXXXXX.XXXXXXXXXX.XXXXXXXXXXX.XXXXXXXXXXXXXXX",
"XXXXXXXXXXXX.XXXXXXXXXXXX.XXXXXXXXXXXX.XXXXXXXXX.XXXXXXX.XXXX       XXX.XXXXXXX.XXXXXXXXX.XXXXXXXXXX.XXXXXXXXXXX.XXXXXXXXXXXXXXX",
"XXXXXXXXXXXX.XXXXXXXXXXXX.XXXXXXXXXXXX.XXXXXXXXX.XXXXXXX.XXXX       XXX.XXXXXXX.XXXXXXXXX.XXXXXXXXXX.XXXXXXXXXXX.XXXXXXXXXXXXXXX",
"XXXXXXXXXXXX.XXXXXXXXXXXX.XXXXXXXXXXXX.XXXXXXXXX.XXXXXXX.XXXX       XXX.XXXXXXX.XXXXXXXXX.XXXXXXXXXX.XXXXXXXXXXX.XXXXXXXXXXXXXXX",
"XXXXXXXXXXXX.XXXXXXXXXXXX.XXXXXXXXXXXX.XXXXXXXXX.XXXXXXX.XXXX       XXX.XXXXXXX.XXXXXXXXX.XXXXXXXXXX.XXXXXXXXXXX.XXXXXXXXXXXXXXX",
"XXXXXXXXXXXX.XXXXXXXXXXXX.XXXXXXXXXXXX.XXXXXXXXX.XXXXXXX.XXXX       XXX.XXXXXXX.XXXXXXXXX.XXXXXXXXXX.XXXXXXXXXXX.XXXXXXXXXXXXXXX",
"XXXXXXXXXXXX.XXXXXXXXXXXX.XXXXXXXXXXXX.XXXXXXXXX.XXXXXXX.X             .XXXXXXX.XXXXXXXXX.XXXXXXXXXX.XXXXXXXXXXX.XXXXXXXXXXXXXXX",
"XXXXXXXXXXXX.XXXXXXXXXXXX.XXXXXXXXXXXX.XXXXXX                                      XXXXXX.XXXXXXXXXX.XXXXXXXXXXX.XXXXXXXXXXXXXXX",
"XXXXXXXXXXXX.XXXXXXXXXXXX.XXXXXX                                                                XXXX.XXXXXXXXXXX.XXXXXXXXXXXXXXX",
"XXXXXXXXXXXX.XXXXXXX                                                                                         XXX.XXXXXXXXXXXXXXX",
"XXXXXXX                                                                                                                  XXXXXXX",
"                                                                                                                                "
};
