/* XPM */
static char *door_6[] = {
/* columns rows colors chars-per-pixel */
"128 128 7 1 ",
"  c black",
". c #2C1803",
"X c #462A07",
"o c #794C15",
"O c #4C5E64",
"+ c #889295",
"@ c #AEBABE",
/* pixels */
"                                                                                                                                ",
"......                                                                                                                    ......",
"......                                                                                                                    ......",
"......ooo                                                                                                              ooo......",
"......oooooo                                                                                                         ooooo......",
"......oooooooX                                                                                                     Xoooooo......",
"......oooooooXoo                                                                                                 ooXoooooo......",
"......oooooooXoooo                                                                                             ooooXoooooo......",
"......oooooooXoooooX                                                                                        oooooooXoooooo......",
"......oooooooXoooooXoo                                                                                    XooooooooXoooooo......",
"......oooooooXoooooXoooo                                                                                ooXooooooooXoooooo......",
"......oooooooXoooooXooooXoo                                                                           ooooXooooooooXoooooo......",
"......oooooooXoooooXooooXoooX                                                                       oXooooXooooooooXoooooo......",
"......oooooooXoooooXooooXoooXoo                                                                  XoooXooooXooooooooXoooooo......",
"......oooooooXoooooXooooXoooXooXo                                                              ooXoooXooooXooooooooXoooooo......",
"......oooooooXoooooXooooXoooXooXooX                                                          oXooXoooXooooXooooooooXoooooo......",
"......oooooooXoooooXooooXoooXooXooXoo                                                       XoXooXoooXooooXooooooooXoooooo......",
"......oooooooXoooooXooooXoooXooXooXooX                                                      XoXooXoooXooooXooooooooXoooooo......",
"......oooooooXoooooXooooXoooXooXooXooX                                                      XoXooXoooXooooXooooooooXoooooo......",
"......oooooooXoooooXooooXoooXooXooXooX                                                      XoXooXoooXooooXooooooooXoooooo......",
"......oooooooXoooooXooooXoooXooXooXooX                                                      XoXooXoooXooooXooooooooXoooooo......",
"......oooooooXoooooXooooXoooXooXooXooX                                                      XoXooXoooXooooXooooooooXoooooo......",
"......oooooooXoooooXooooXoooXooXooXooX                                                      XoXooXoooXooooXooooooooXoooooo......",
"......oooooooXoooooXooooXoooXooXooXooX                                                      XoXooXoooXooooXooooooooXoooooo......",
"......oooooooXoooooXooooXoooXooXooXooX                                                      XoXooXoooXooooXooooooooXoooooo......",
"......oooooooXoooooXooooXoooXooXooXooX                                                      XoXooXoooXooooXooooooooXoooooo......",
"......oooooooXoooooXooooXoooXooXooXooX                                                      XoXooXoooXooooXooooooooXoooooo......",
"......oooooooXoooooXooooXoooXooXooXooX                                                      XoXooXoooXooooXooooooooXoooooo......",
"......oooooooXoooooXooooXoooXooXooXooX                                                      XoXooXoooXooooXooooooooXoooooo......",
"......oooooooXoooooXooooXoooXooXooXooX                                                      XoXooXoooXooooXooooooooXoooooo......",
"......oooooooXoooooXooooXoooXooXooXooX                                                      XoXooXoooXooooXooooooooXoooooo......",
"......oooooooXoooooXooooXoooXooXooXooX                                                      XoXooXoooXooooXooooooooXoooooo......",
"......oooooooXoooooXooooXoooXooXooXooX                                                      XoXooXoooXooooXooooooooXoooooo......",
"......oooooooXoooooXooooXoooXooXooXooX                                                      XoXooXoooXooooXooooooooXoooooo......",
"......oooooooXoooooXooooXoooXooXooXooX                                                      XoXooXoooXooooXooooooooXoooooo......",
"......oooooooXoooooXooooXoooXooXooXooX                                                      XoXooXoooXooooXooooooooXoooooo......",
"......oooooooXoooooXooooXoooXooXooXooX                                                      XoXooXoooXooooXooooooooXoooooo......",
"......oooooooXoooooXooooXoooXooXooXooX                                                      XoXooXoooXooooXooooooooXoooooo......",
"......oooooooXoooooXooooXoooXooXooXooX                                                      XoXooXoooXooooXooooooooXoooooo......",
"......oooooooXoooooXooooXoooXooXooXooX                                                      XoXooXoooXooooXooooooooXoooooo......",
"......oooooooXoooooXooooXoooXooXooXooX                                                      XoXooXoooXooooXooooooooXoooooo......",
"......oooooooXoooooXooooXoooXooXooXooX                                                      XoXooXoooXooooXooooooooXoooooo......",
"......oooooooXoooooXooooXoooXooXooXooX                                                      XoXooXoooXooooXooooooooXoooooo......",
"......oooooooXoooooXooooXoooXooXooXooX                                                      XoXooXoooXooooXooooooooXoooooo......",
"......oooooooXoooooXooooXoooXooXooXooX                                                      XoXooXoooXooooXooooooooXoooooo......",
"......oooooooXoooooXooooXoooXooXooXooX                                                      XoXooXoooXooooXooooooooXoooooo......",
"......oooooooXoooooXooooXoooXooXooXooX                                                      XoXooXoooXooooXooooooooXoooooo......",
"......oooooooXoooooXooooXoooXooXooXooX                                                      XoXooXoooXooooXooooooooXoooooo......",
"......oooooooXoooooXooooXoooXooXooXooX                                                      XoXooXoooXooooXooooooooXoooooo......",
"......oooooooXoooooXooooXoooXooXooXooX                                                      XoXooXoooXooooXooooooooXoooooo......",
"......oooooooXoooooXooooXoooXooXooXooX                                                      XoXooXoooXooooXooooooooXoooooo......",
"......oooooooXoooooXooooXoooXooXooXooX                                                      XoXooXoooXooooXooooooooXoooooo......",
"......oooooooXoooooXooooXoooXooXooXooX                                                      XoXooXoooXooooXooooooooXoooooo......",
"......oooooooXoooooXooooXoooXooXooXooX                                                      XoXooXoooXooooXooooooooXoooooo......",
"......oooooooXoooooXooooXoooXooXooXooX                                                      XoXooXoooXooooXooooooooXoooooo......",
"......oooooooXoooooXooooXoooXooXooXooX                                                      XoXooXoooXooooXooooooooXoooooo......",
"......oooooooXoooooXooooXoooXooXooXooX                                                      XoXooXoooXooooXooooooooXoooooo......",
"......oooooooXoooooXooooXoooXooXooXooX                                                      XoXooXoooXooooXooooooooXoooooo......",
"......oooooooXoooooXooooXoooXooXooXooX                                                      XoXooXoooXooooXooooooooXoooooo......",
"......oooooooXoooooXooooXoooXooXooXooX                                                      XoXooXoooXooooXooooooooXoooooo......",
"......oooooooXoooooXooooXoooXooXooXooX                                                      XoXooXoooXooooXooooooooXoooooo......",
"......oooooooXoooooXooooXoooXooXooXooX                                                      XoXooXoooXooooXooooooooXoooooo......",
"......oooooooXoooooXooooXoooXooXooXooX                                                      XoXooXoooXooooXooooooooXoooooo......",
"......oooooooXoooooXooooXoooXooXooXooX                                                      XoXooXoooXooooXooooooooXoooooo......",
"......oooooooXoooooXooooXoooXooXooXooX                                                      XoXooXoooXooooXooooooooXoooooo......",
"......oooooooXoooooXooooXoooXooXooXooX                                                      XoXooXoooXooooXooooooooXoooooo......",
"......oooooooXoooooXooooXoooXooXooXooX                                                      XoXooXoooXooooXooooooooXoooooo......",
"......oooooooXoooooXooooXoooXooXooXooX                                                      XoXooXoooXooooXooooooooXoooooo......",
"......oooooooXoooooXooooXoooXooXooXooX                                                      XoXooXoooXooooXooooooooXoooooo......",
"......oooooooXoooooXooooXoooXooXooXooX                                                      XoXooXoooXooooXooooooooXoooooo......",
"......oooooooXoooooXooooXoooXooXooXooX                                                      XoXooXoooXooooXooooooooXoooooo......",
"......oooooooXoooooXooooXoooXooXooXooX                                                      XoXooXoooXooooXooooooooXoooooo......",
"......oooooooXoooooXooooXoooXooXooXooX                                                      XoXooXoooXooooXooooooooXoooooo......",
"......oooooooXoooooXooooXoooXooXooXooX                                                      XoXooXoooXooooXooooooooXoooooo......",
"......oooooooXoooooXooooXoooXooXooXooX                                                      XoXooXoooXooooXooooooooXoooooo......",
"......oooooooXoooooXooooXoooXooXooXooX                                                      XoXooXoooXooooXooooooooXoooooo......",
"......oooooooXoooooXooooXoooXooXooXooX                                                      XoXooXoooXooooXooooooooXoooooo......",
"......oooooooXoooooXooooXoooXooXooXooX                                                      XoXooXoooXooooXooooooooXoooooo......",
"......oooooooXoooooXooooXoooXooXooXooX                                                      XoXooXoooXooooXooooooooXoooooo......",
"......oooooooXoooooXooooXoooXooXooXooX                                                      XoXooXoooXooooXooooooooXoooooo......",
"......oooooooXoooooXooooXoooXooXooXooX                                                      XoXooXoooXooooXooooooooXoooooo......",
"......oooooooXoooooXooooXoooXooXooXooX                                                      XoXooXoooXooooXooooooooXoooooo......",
"......oooooooXoooooXooooXoooXooXooXooX                                                      XoXooXoooXooooXooooooooXoooooo......",
"......oooooooXoooooXooooXoooXooXooXooX                                                      XoXooXoooXooooXooooooooXoooooo......",
"......oooooooXoooooXooooXoooXooXooXooX                                                      XoXooXoooXooooXooooooooXoooooo......",
"......oooooooXoooooXooooXoooXooXooXooX                                                      XoXooXoooXooooXooooooooXoooooo......",
"......oooooooXoooooXooooXoooXooXooXooX                                                      XoXooXoooXooooXooooooooXoooooo......",
"......oooooooXoooooXooooXoooXooXooXooX                                                      XoXooXoooXooooXooooooooXoooooo......",
"......oooooooXoooooXooooXoooXooXooXooX                                                      XoXooXoooXooooXooooooooXoooooo......",
"......oooooooXoooooXooooXoooXooXooXooX                                                      XoXooXoooXooooXooooooooXoooooo......",
"......oooooooXoooooXooooXoooXooXooXooX                                                      XoXooXoooXooooXooooooooXoooooo......",
"......oooooooXoooooXooooXoooXooXooXooX               @@@@@@@@@@@@@@@@@@@@                   XoXooXoooXooooXooooooooXoooooo......",
"......oooooooXoooooXooooXoooXooXooXooX     @@@@@@@@@++++++++++++++++++++++++@@@@@@@         XoXooXoooXooooXooooooooXoooooo......",
"......oooooooXoooooXooooXoooXooXooXooX@@@@+++++++++++++++++++OOO+++++++++OO+++OOOO+++@@@    XoXooXoooXooooXooooooooXoooooo......",
"......oooooooXoooooXooooXoooXooXoo@@@@++++++OOOOO+++OOOO+++++OOO+++++++OOOO+++OOOO+++++@@@@+XoXooXoooXooooXooooooooXoooooo......",
"......oooooooXoooooXooooXoooXooXo++++++++++OOOOOO++OOO+OO++++OOO++++++OOOO++++OO+++++++++++++oXooXoooXooooXooooooooXoooooo......",
"......oooooooXoooooXooooXoooXooX+++++++++++OOO+++++OO++OO+++OOOO++++++OO++++++OOOOO+++++++++++XooXoooXooooXooooooooXoooooo......",
"......oooooooXoooooXooooXoooXooX+++++++++++OOOOO+++OOOOOO+++OOOOO+++++OO++++++OOOOO+++++++++++XooXoooXooooXooooooooXoooooo......",
"......oooooooXoooooXooooXoooXooXOO++++++++++OOOO+++OOOOO++++OO+OOO++++OO++++++OO++++++++++@@OOXooXoooXooooXooooooooXoooooo......",
"......oooooooXoooooXooooXoooXooXOO@++++++++++OOO+++OO++++++OOOOOOO++++OOO+++++OOOOO++++@OOOOOOXooXoooXooooXooooooooXoooooo......",
"......oooooooXoooooXooooXoooXooXOOOOO@@+++OOOOOO+++OO++++++OOOOOOOO++++OOOOO++OOOOO++OOOOOOOOOXooXoooXooooXooooooooXoooooo......",
"......oooooooXoooooXooooXoooXooXOOOOOOOOO+OOOOO++++OO++++++OO+++OOOO++++OOOO+++++@@@OOOOOOOOXoXooXoooXooooXooooooooXoooooo......",
"......oooooooXoooooXooooXoooXooXOOOOOOOOOO@@@@+++++++++++++OO++++OOO+++++++@@+OOOOOOOOOOOOOOXoXooXoooXooooXooooooooXoooooo......",
"......oooooooXoooooXooooXoooXooXooOOOOOOOOOOOOOOOOOOOOOOOOOOOOOOOOOOOOOOOOOOOOOOOOOOOOOOOO  XoXooXoooXooooXooooooooXoooooo......",
"......oooooooXoooooXooooXoooXooXooXooOOOOOOOOOOOOOOOOOOOOOOOOOOOOOOOOOOOOOOOOOOOOOOOOOOO    XoXooXoooXooooXooooooooXoooooo......",
"......oooooooXoooooXooooXoooXooXooXooX       OOOOOOOOOOOOOOOOOOOOOOOOOOOOOOOOOOOOO          XoXooXoooXooooXooooooooXoooooo......",
"......oooooooXoooooXooooXoooXooXooXooX                  OOOOOOOOOOOOOOOOOOO                 XoXooXoooXooooXooooooooXoooooo......",
"......oooooooXoooooXooooXoooXooXooXooX                                                      XoXooXoooXooooXooooooooXoooooo......",
"......oooooooXoooooXooooXoooXooXooXooX                                                      XoXooXoooXooooXooooooooXoooooo......",
"......oooooooXoooooXooooXoooXooXooXooX                                                      XoXooXoooXooooXooooooooXoooooo......",
"......oooooooXoooooXooooXoooXooXooXooX                                                      XoXooXoooXooooXooooooooXoooooo......",
"......oooooooXoooooXooooXoooXooXooXooX                                                      XoXooXoooXooooXooooooooXoooooo......",
"......oooooooXoooooXooooXoooXooXooXooX                                                      XoXooXoooXooooXooooooooXoooooo......",
"......oooooooXoooooXooooXoooXooXooXoo                                                       XoXooXoooXooooXooooooooXoooooo......",
"......oooooooXoooooXooooXoooXooXooX                                                          oXooXoooXooooXooooooooXoooooo......",
"......oooooooXoooooXooooXoooXooXo                                                               oXoooXooooXooooooooXoooooo......",
"......oooooooXoooooXooooXoooXo                                                                    oooXooooXooooooooXoooooo......",
"......oooooooXoooooXooooXooo                                                                         XooooXooooooooXoooooo......",
"......oooooooXoooooXooooX                                                                              oooXooooooooXoooooo......",
"......oooooooXoooooXooo                                                                                   XooooooooXoooooo......",
"......oooooooXoooooX                                                                                        oooooooXoooooo......",
"......oooooooXoooo                                                                                             ooooXoooooo......",
"......oooooooXo                                                                                                   oXoooooo......",
"......ooooooo                                                                                                       oooooo......",
"......oooo                                                                                                             ooo......",
"......o                                                                                                                  o......",
"......                                                                                                                    ......",
"                                                                                                                                "
};
