/* XPM */
static char *door_7[] = {
/* columns rows colors chars-per-pixel */
"128 128 7 1 ",
"  c black",
". c #2C1803",
"X c #462A07",
"o c #794C15",
"O c #4C5E64",
"+ c #889295",
"@ c #AEBABE",
/* pixels */
"                                                                                                                                ",
"......                                                                                                                    ......",
"......                                                                                                                    ......",
"......oo                                                                                                                oo......",
"......oooo                                                                                                             ooo......",
"......oooooo                                                                                                         ooooo......",
"......oooooooX                                                                                                     Xoooooo......",
"......oooooooXo                                                                                                  ooXoooooo......",
"......oooooooXooo                                                                                              ooooXoooooo......",
"......oooooooXooooo                                                                                          ooooooXoooooo......",
"......oooooooXoooooX                                                                                       ooooooooXoooooo......",
"......oooooooXoooooXoo                                                                                   oXooooooooXoooooo......",
"......oooooooXoooooXoooo                                                                                ooXooooooooXoooooo......",
"......oooooooXoooooXooooXo                                                                            ooooXooooooooXoooooo......",
"......oooooooXoooooXooooXoo                                                                         oXooooXooooooooXoooooo......",
"......oooooooXoooooXooooXoooX                                                                     oooXooooXooooooooXoooooo......",
"......oooooooXoooooXooooXoooXoo                                                                 oXoooXooooXooooooooXoooooo......",
"......oooooooXoooooXooooXoooXooX                                                              XooXoooXooooXooooooooXoooooo......",
"......oooooooXoooooXooooXoooXooXoo                                                           oXooXoooXooooXooooooooXoooooo......",
"......oooooooXoooooXooooXoooXooXooXo                                                         oXooXoooXooooXooooooooXoooooo......",
"......oooooooXoooooXooooXoooXooXooXoo                                                        oXooXoooXooooXooooooooXoooooo......",
"......oooooooXoooooXooooXoooXooXooXoo                                                        oXooXoooXooooXooooooooXoooooo......",
"......oooooooXoooooXooooXoooXooXooXoo                                                        oXooXoooXooooXooooooooXoooooo......",
"......oooooooXoooooXooooXoooXooXooXoo                                                        oXooXoooXooooXooooooooXoooooo......",
"......oooooooXoooooXooooXoooXooXooXoo                                                        oXooXoooXooooXooooooooXoooooo......",
"......oooooooXoooooXooooXoooXooXooXoo                                                        oXooXoooXooooXooooooooXoooooo......",
"......oooooooXoooooXooooXoooXooXooXoo                                                        oXooXoooXooooXooooooooXoooooo......",
"......oooooooXoooooXooooXoooXooXooXoo                                                        oXooXoooXooooXooooooooXoooooo......",
"......oooooooXoooooXooooXoooXooXooXoo                                                        oXooXoooXooooXooooooooXoooooo......",
"......oooooooXoooooXooooXoooXooXooXoo                                                        oXooXoooXooooXooooooooXoooooo......",
"......oooooooXoooooXooooXoooXooXooXoo                                                        oXooXoooXooooXooooooooXoooooo......",
"......oooooooXoooooXooooXoooXooXooXoo                                                        oXooXoooXooooXooooooooXoooooo......",
"......oooooooXoooooXooooXoooXooXooXoo                                                        oXooXoooXooooXooooooooXoooooo......",
"......oooooooXoooooXooooXoooXooXooXoo                                                        oXooXoooXooooXooooooooXoooooo......",
"......oooooooXoooooXooooXoooXooXooXoo                                                        oXooXoooXooooXooooooooXoooooo......",
"......oooooooXoooooXooooXoooXooXooXoo                                                        oXooXoooXooooXooooooooXoooooo......",
"......oooooooXoooooXooooXoooXooXooXoo                                                        oXooXoooXooooXooooooooXoooooo......",
"......oooooooXoooooXooooXoooXooXooXoo                                                        oXooXoooXooooXooooooooXoooooo......",
"......oooooooXoooooXooooXoooXooXooXoo                                                        oXooXoooXooooXooooooooXoooooo......",
"......oooooooXoooooXooooXoooXooXooXoo                                                        oXooXoooXooooXooooooooXoooooo......",
"......oooooooXoooooXooooXoooXooXooXoo                                                        oXooXoooXooooXooooooooXoooooo......",
"......oooooooXoooooXooooXoooXooXooXoo                                                        oXooXoooXooooXooooooooXoooooo......",
"......oooooooXoooooXooooXoooXooXooXoo                                                        oXooXoooXooooXooooooooXoooooo......",
"......oooooooXoooooXooooXoooXooXooXoo                                                        oXooXoooXooooXooooooooXoooooo......",
"......oooooooXoooooXooooXoooXooXooXoo                                                        oXooXoooXooooXooooooooXoooooo......",
"......oooooooXoooooXooooXoooXooXooXoo                                                        oXooXoooXooooXooooooooXoooooo......",
"......oooooooXoooooXooooXoooXooXooXoo                                                        oXooXoooXooooXooooooooXoooooo......",
"......oooooooXoooooXooooXoooXooXooXoo                                                        oXooXoooXooooXooooooooXoooooo......",
"......oooooooXoooooXooooXoooXooXooXoo                                                        oXooXoooXooooXooooooooXoooooo......",
"......oooooooXoooooXooooXoooXooXooXoo                                                        oXooXoooXooooXooooooooXoooooo......",
"......oooooooXoooooXooooXoooXooXooXoo                                                        oXooXoooXooooXooooooooXoooooo......",
"......oooooooXoooooXooooXoooXooXooXoo                                                        oXooXoooXooooXooooooooXoooooo......",
"......oooooooXoooooXooooXoooXooXooXoo                                                        oXooXoooXooooXooooooooXoooooo......",
"......oooooooXoooooXooooXoooXooXooXoo                                                        oXooXoooXooooXooooooooXoooooo......",
"......oooooooXoooooXooooXoooXooXooXoo                                                        oXooXoooXooooXooooooooXoooooo......",
"......oooooooXoooooXooooXoooXooXooXoo                                                        oXooXoooXooooXooooooooXoooooo......",
"......oooooooXoooooXooooXoooXooXooXoo                                                        oXooXoooXooooXooooooooXoooooo......",
"......oooooooXoooooXooooXoooXooXooXoo                                                        oXooXoooXooooXooooooooXoooooo......",
"......oooooooXoooooXooooXoooXooXooXoo                                                        oXooXoooXooooXooooooooXoooooo......",
"......oooooooXoooooXooooXoooXooXooXoo                                                        oXooXoooXooooXooooooooXoooooo......",
"......oooooooXoooooXooooXoooXooXooXoo                                                        oXooXoooXooooXooooooooXoooooo......",
"......oooooooXoooooXooooXoooXooXooXoo                                                        oXooXoooXooooXooooooooXoooooo......",
"......oooooooXoooooXooooXoooXooXooXoo                                                        oXooXoooXooooXooooooooXoooooo......",
"......oooooooXoooooXooooXoooXooXooXoo                                                        oXooXoooXooooXooooooooXoooooo......",
"......oooooooXoooooXooooXoooXooXooXoo                                                        oXooXoooXooooXooooooooXoooooo......",
"......oooooooXoooooXooooXoooXooXooXoo                                                        oXooXoooXooooXooooooooXoooooo......",
"......oooooooXoooooXooooXoooXooXooXoo                                                        oXooXoooXooooXooooooooXoooooo......",
"......oooooooXoooooXooooXoooXooXooXoo                                                        oXooXoooXooooXooooooooXoooooo......",
"......oooooooXoooooXooooXoooXooXooXoo                                                        oXooXoooXooooXooooooooXoooooo......",
"......oooooooXoooooXooooXoooXooXooXoo                                                        oXooXoooXooooXooooooooXoooooo......",
"......oooooooXoooooXooooXoooXooXooXoo                                                        oXooXoooXooooXooooooooXoooooo......",
"......oooooooXoooooXooooXoooXooXooXoo                                                        oXooXoooXooooXooooooooXoooooo......",
"......oooooooXoooooXooooXoooXooXooXoo                                                        oXooXoooXooooXooooooooXoooooo......",
"......oooooooXoooooXooooXoooXooXooXoo                                                        oXooXoooXooooXooooooooXoooooo......",
"......oooooooXoooooXooooXoooXooXooXoo                                                        oXooXoooXooooXooooooooXoooooo......",
"......oooooooXoooooXooooXoooXooXooXoo                                                        oXooXoooXooooXooooooooXoooooo......",
"......oooooooXoooooXooooXoooXooXooXoo                                                        oXooXoooXooooXooooooooXoooooo......",
"......oooooooXoooooXooooXoooXooXooXoo                                                        oXooXoooXooooXooooooooXoooooo......",
"......oooooooXoooooXooooXoooXooXooXoo                                                        oXooXoooXooooXooooooooXoooooo......",
"......oooooooXoooooXooooXoooXooXooXoo                                                        oXooXoooXooooXooooooooXoooooo......",
"......oooooooXoooooXooooXoooXooXooXoo                                                        oXooXoooXooooXooooooooXoooooo......",
"......oooooooXoooooXooooXoooXooXooXoo                                                        oXooXoooXooooXooooooooXoooooo......",
"......oooooooXoooooXooooXoooXooXooXoo                                                        oXooXoooXooooXooooooooXoooooo......",
"......oooooooXoooooXooooXoooXooXooXoo                                                        oXooXoooXooooXooooooooXoooooo......",
"......oooooooXoooooXooooXoooXooXooXoo                                                        oXooXoooXooooXooooooooXoooooo......",
"......oooooooXoooooXooooXoooXooXooXoo                                                        oXooXoooXooooXooooooooXoooooo......",
"......oooooooXoooooXooooXoooXooXooXoo                                                        oXooXoooXooooXooooooooXoooooo......",
"......oooooooXoooooXooooXoooXooXooXoo                                                        oXooXoooXooooXooooooooXoooooo......",
"......oooooooXoooooXooooXoooXooXooXoo                                                        oXooXoooXooooXooooooooXoooooo......",
"......oooooooXoooooXooooXoooXooXooXoo                                                        oXooXoooXooooXooooooooXoooooo......",
"......oooooooXoooooXooooXoooXooXooXoo                                                        oXooXoooXooooXooooooooXoooooo......",
"......oooooooXoooooXooooXoooXooXooXoo                @@@@@@@@@@@@@@@@@@@@                    oXooXoooXooooXooooooooXoooooo......",
"......oooooooXoooooXooooXoooXooXooXoo      @@@@@@@@@++++++++++++++++++++++++@@@@@@@          oXooXoooXooooXooooooooXoooooo......",
"......oooooooXoooooXooooXoooXooXooXoo @@@@+++++++++++++++++++OOO+++++++++OO+++OOOO+++@@@     oXooXoooXooooXooooooooXoooooo......",
"......oooooooXoooooXooooXoooXooXoo@@@@++++++OOOOO+++OOOO+++++OOO+++++++OOOO+++OOOO+++++@@@@+ oXooXoooXooooXooooooooXoooooo......",
"......oooooooXoooooXooooXoooXooXo++++++++++OOOOOO++OOO+OO++++OOO++++++OOOO++++OO+++++++++++++oXooXoooXooooXooooooooXoooooo......",
"......oooooooXoooooXooooXoooXooX+++++++++++OOO+++++OO++OO+++OOOO++++++OO++++++OOOOO+++++++++++XooXoooXooooXooooooooXoooooo......",
"......oooooooXoooooXooooXoooXooX+++++++++++OOOOO+++OOOOOO+++OOOOO+++++OO++++++OOOOO+++++++++++XooXoooXooooXooooooooXoooooo......",
"......oooooooXoooooXooooXoooXooXOO++++++++++OOOO+++OOOOO++++OO+OOO++++OO++++++OO++++++++++@@OOXooXoooXooooXooooooooXoooooo......",
"......oooooooXoooooXooooXoooXooXOO@++++++++++OOO+++OO++++++OOOOOOO++++OOO+++++OOOOO++++@OOOOOOXooXoooXooooXooooooooXoooooo......",
"......oooooooXoooooXooooXoooXooXOOOOO@@+++OOOOOO+++OO++++++OOOOOOOO++++OOOOO++OOOOO++OOOOOOOOOXooXoooXooooXooooooooXoooooo......",
"......oooooooXoooooXooooXoooXooXOOOOOOOOO+OOOOO++++OO++++++OO+++OOOO++++OOOO+++++@@@OOOOOOOO oXooXoooXooooXooooooooXoooooo......",
"......oooooooXoooooXooooXoooXooXOOOOOOOOOO@@@@+++++++++++++OO++++OOO+++++++@@+OOOOOOOOOOOOOO oXooXoooXooooXooooooooXoooooo......",
"......oooooooXoooooXooooXoooXooXooOOOOOOOOOOOOOOOOOOOOOOOOOOOOOOOOOOOOOOOOOOOOOOOOOOOOOOOO   oXooXoooXooooXooooooooXoooooo......",
"......oooooooXoooooXooooXoooXooXooXooOOOOOOOOOOOOOOOOOOOOOOOOOOOOOOOOOOOOOOOOOOOOOOOOOOO     oXooXoooXooooXooooooooXoooooo......",
"......oooooooXoooooXooooXoooXooXooXoo        OOOOOOOOOOOOOOOOOOOOOOOOOOOOOOOOOOOOO           oXooXoooXooooXooooooooXoooooo......",
"......oooooooXoooooXooooXoooXooXooXoo                   OOOOOOOOOOOOOOOOOOO                  oXooXoooXooooXooooooooXoooooo......",
"......oooooooXoooooXooooXoooXooXooXoo                                                        oXooXoooXooooXooooooooXoooooo......",
"......oooooooXoooooXooooXoooXooXooXoo                                                        oXooXoooXooooXooooooooXoooooo......",
"......oooooooXoooooXooooXoooXooXooXoo                                                        oXooXoooXooooXooooooooXoooooo......",
"......oooooooXoooooXooooXoooXooXooXoo                                                        oXooXoooXooooXooooooooXoooooo......",
"......oooooooXoooooXooooXoooXooXooXoo                                                        oXooXoooXooooXooooooooXoooooo......",
"......oooooooXoooooXooooXoooXooXooXoo                                                        oXooXoooXooooXooooooooXoooooo......",
"......oooooooXoooooXooooXoooXooXooXo                                                          XooXoooXooooXooooooooXoooooo......",
"......oooooooXoooooXooooXoooXooXo                                                               oXoooXooooXooooooooXoooooo......",
"......oooooooXoooooXooooXoooXoo                                                                    ooXooooXooooooooXoooooo......",
"......oooooooXoooooXooooXoooX                                                                        XooooXooooooooXoooooo......",
"......oooooooXoooooXooooXo                                                                              ooXooooooooXoooooo......",
"......oooooooXoooooXoooo                                                                                  XooooooooXoooooo......",
"......oooooooXoooooXoo                                                                                      oooooooXoooooo......",
"......oooooooXooooo                                                                                            ooooXoooooo......",
"......oooooooXooo                                                                                                ooXoooooo......",
"......oooooooX                                                                                                      oooooo......",
"......oooooo                                                                                                          oooo......",
"......oooo                                                                                                              oo......",
"......o                                                                                                                  o......",
"......                                                                                                                    ......",
"                                                                                                                                "
};
