/* XPM */
static char *door_1[] = {
/* columns rows colors chars-per-pixel */
"128 128 5 1 ",
"  c #462A07",
". c #794C15",
"X c #4C5E64",
"o c #889295",
"O c #AEBABE",
/* pixels */
"......... ............. .............. ............. ........... ............ ............ ........... ............ ............",
"......... ............. .............. ............. ........... ............ ............ ........... ............ ............",
"......... ............. .............. ............. ........... ............ ............ ........... ............ ............",
"......... ............. .............. ............. ........... ............ ............ ........... ............ ............",
"......... ............. .............. ............. ........... ............ ............ ........... ............ ............",
"......... ............. .............. ............. ........... ............ ............ ........... ............ ............",
"......... ............. .............. ............. ........... ............ ............ ........... ............ ............",
"......... ............. .............. ............. ........... ............ ............ ........... ............ ............",
"......... ............. .............. ............. ........... ............ ............ ........... ............ ............",
"......... ............. .............. ............. ........... ............ ............ ........... ............ ............",
"......... ............. .............. ............. ........... ............ ............ ........... ............ ............",
"......... ............. .............. ............. ........... ............ ............ ........... ............ ............",
"......... ............. .............. ............. ........... ............ ............ ........... ............ ............",
"......... ............. .............. ............. ........... ............ ............ ........... ............ ............",
"......... ............. .............. ............. ........... ............ ............ ........... ............ ............",
"......... ............. .............. ............. ........... ............ ............ ........... ............ ............",
"......... ............. .............. ............. ........... ............ ............ ........... ............ ............",
"......... ............. .............. ............. ........... ............ ............ ........... ............ ............",
"......... ............. .............. ............. ........... ............ ............ ........... ............ ............",
"......... ............. .............. ............. ........... ............ ............ ........... ............ ............",
"......... ............. .............. ............. ........... ............ ............ ........... ............ ............",
"......... ............. .............. ............. ........... ............ ............ ........... ............ ............",
"......... ............. .............. ............. ........... ............ ............ ........... ............ ............",
"......... ............. .............. ............. ........... ............ ............ ........... ............ ............",
"......... ............. .............. ............. ........... ............ ............ ........... ............ ............",
"......... ............. .............. ............. ........... ............ ............ ........... ............ ............",
"......... ............. .............. ............. ........... ............ ............ ........... ............ ............",
"......... ............. .............. ............. ........... ............ ............ ........... ............ ............",
"......... ............. .............. ............. ........... ............ ............ ........... ............ ............",
"......... ............. .............. ............. ........... ............ ............ ........... ............ ............",
"......... ............. .............. ............. ........... ............ ............ ........... ............ ............",
"......... ............. .............. ............. ........... ............ ............ ........... ............ ............",
"......... ............. .............. ............. ........... ............ ............ ........... ............ ............",
"......... ............. .............. ............. ........... ............ ............ ........... ............ ............",
"......... ............. .............. ............. ........... ............ ............ ........... ............ ............",
"......... ............. .............. ............. ........... ............ ............ ........... ............ ............",
"......... ............. .............. ............. ........... ............ ............ ........... ............ ............",
"......... ............. .............. ............. ........... ............ ............ ........... ............ ............",
"......... ............. .............. ............. ........... ............ ............ ........... ............ ............",
"......... ............. .............. ............. ........... ............ ............ ........... ............ ............",
"......... ............. .............. ............. ........... ............ ............ ........... ............ ............",
"......... ............. .............. ............. ........... ............ ............ ........... ............ ............",
"......... ............. .............. ............. ........... ............ ............ ........... ............ ............",
"......... ............. .............. ............. ........... ............ ............ ........... ............ ............",
"......... ............. .............. ............. ........... ............ ............ ........... ............ ............",
"......... ............. .............. ............. ........... ............ ............ ........... ............ ............",
"......... ............. .............. ............. ........... ............ ............ ........... ............ ............",
"......... ............. .............. ............. ........... ............ ............ ........... ............ ............",
"......... ............. .............. ............. ........... ............ ............ ........... ............ ............",
"......... ............. .............. ............. ........... ............ ............ ........... ............ ............",
"......... ............. .............. ............. ........... ............ ............ ........... ............ ............",
"......... ............. .............. ............. ........... ............ ............ ........... ............ ............",
"......... ............. .............. ............. ........... ............ ............ ........... ............ ............",
"......... ............. .............. ............. ........... ............ ............ ........... ............ ............",
"......... ............. .............. ............. ........... ............ ............ ........... ............ ............",
"......... ............. .............. ............. ........... ............ ............ ........... ............ ............",
"......... ............. .............. ............. ........... ............ ............ ........... ............ ............",
"......... ............. .............. ............. ........... ............ ............ ........... ............ ............",
"......... ............. .............. ............. ........... ............ ............ ........... ............ ............",
"......... ............. .............. ............. ........... ............ ............ ........... ............ ............",
"......... ............. .............. ............. ........... ............ ............ ........... ............ ............",
"......... ............. .............. ............. ........... ............ ............ ........... ............ ............",
"......... ............. .............. ............. ........... ............ ............ ........... ............ ............",
"......... ............. .............. ............. ........... ............ ............ ........... ............ ............",
"......... ............. .............. ............. ........... ............ ............ ........... ............ ............",
"......... ............. .............. ............. ........... ............ ............ ........... ............ ............",
"......... ............. .............. ............. ........... ............ ............ ........... ............ ............",
"......... ............. .............. ............. ........... ............ ............ ........... ............ ............",
"......... ............. .............. ............. ........... ............ ............ ........... ............ ............",
"......... ............. .............. ............. ........... ............ ............ ........... ............ ............",
"......... ............. .............. ............. ........... ............ ............ ........... ............ ............",
"......... ............. .............. ............. ........... ............ ............ ........... ............ ............",
"......... ............. .............. ............. ........... ............ ............ ........... ............ ............",
"......... ............. .............. ............. ........... ............ ............ ........... ............ ............",
"......... ............. .............. ............. ........... ............ ............ ........... ............ ............",
"......... ............. .............. ............. ........... ............ ............ ........... ............ ............",
"......... ............. .............. ............. ........... ............ ............ ........... ............ ............",
"......... ............. .............. ............. ........... ............ ............ ........... ............ ............",
"......... ............. .............. ............. ........... ............ ............ ........... ............ ............",
"......... ............. .............. ............. ........... ............ ............ ........... ............ ............",
"......... ............. .............. ............. ........... ............ ............ ........... ............ ............",
"......... ............. .............. ............. ........... ............ ............ ........... ............ ............",
"......... ............. .............. ............. ........... ............ ............ ........... ............ ............",
"......... ............. .............. ............. ........... ............ ............ ........... ............ ............",
"......... ............. .............. ............. ........... ............ ............ ........... ............ ............",
"......... ............. .............. ............. ........... ............ ............ ........... ............ ............",
"......... ............. .............. ............. ........... ............ ............ ........... ............ ............",
"......... ............. .............. ............. ........... ............ ............ ........... ............ ............",
"......... ............. .............. ............. ........... ............ ............ ........... ............ ............",
"......... ............. .............. ............. ........... ............ ............ ........... ............ ............",
"......... ............. .............. ............. ........... ............ ............ ........... ............ ............",
"......... ............. .............. ............. OOOOOOOOOOOOOOOOOOOO.... ............ ........... ............ ............",
"......... ............. .............. ....OOOOOOOOOooooooooooooooooooooooooOOOOOOO....... ........... ............ ............",
"......... ............. ..............OOOOoooooooooooooooooooXXXoooooooooXXoooXXXXoooOOO.. ........... ............ ............",
"......... ............. ..........OOOOooooooXXXXXoooXXXXoooooXXXoooooooXXXXoooXXXXoooooOOOOo.......... ............ ............",
"......... ............. .........ooooooooooXXXXXXooXXXoXXooooXXXooooooXXXXooooXXooooooooooooo......... ............ ............",
"......... ............. ........oooooooooooXXXoooooXXooXXoooXXXXooooooXXooooooXXXXXooooooooooo........ ............ ............",
"......... ............. ........oooooooooooXXXXXoooXXXXXXoooXXXXXoooooXXooooooXXXXXooooooooooo........ ............ ............",
"......... ............. ........XXooooooooooXXXXoooXXXXXooooXXoXXXooooXXooooooXXooooooooooOOXX........ ............ ............",
"......... ............. ........XXOooooooooooXXXoooXXooooooXXXXXXXooooXXXoooooXXXXXooooOXXXXXX........ ............ ............",
"......... ............. ........XXXXXOOoooXXXXXXoooXXooooooXXXXXXXXooooXXXXXooXXXXXooXXXXXXXXX........ ............ ............",
"......... ............. ........XXXXXXXXXoXXXXXooooXXooooooXXoooXXXXooooXXXXoooooOOOXXXXXXXX.......... ............ ............",
"......... ............. ........XXXXXXXXXXOOOOoooooooooooooXXooooXXXoooooooOOoXXXXXXXXXXXXXX.......... ............ ............",
"......... ............. ..........XXXXXXXXXXXXXXXXXXXXXXXXXXXXXXXXXXXXXXXXXXXXXXXXXXXXXXXX ........... ............ ............",
"......... ............. .............XXXXXXXXXXXXXXXXXXXXXXXXXXXXXXXXXXXXXXXXXXXXXXXXXXX.. ........... ............ ............",
"......... ............. .............. ......XXXXXXXXXXXXXXXXXXXXXXXXXXXXXXXXXXXXX........ ........... ............ ............",
"......... ............. .............. ............. ...XXXXXXXXXXXXXXXXXXX.. ............ ........... ............ ............",
"......... ............. .............. ............. ........... ............ ............ ........... ............ ............",
"......... ............. .............. ............. ........... ............ ............ ........... ............ ............",
"......... ............. .............. ............. ........... ............ ............ ........... ............ ............",
"......... ............. .............. ............. ........... ............ ............ ........... ............ ............",
"......... ............. .............. ............. ........... ............ ............ ........... ............ ............",
"......... ............. .............. ............. ........... ............ ............ ........... ............ ............",
"......... ............. .............. ............. ........... ............ ............ ........... ............ ............",
"......... ............. .............. ............. ........... ............ ............ ........... ............ ............",
"......... ............. .............. ............. ........... ............ ............ ........... ............ ............",
"......... ............. .............. ............. ........... ............ ............ ........... ............ ............",
"......... ............. .............. ............. ........... ............ ............ ........... ............ ............",
"......... ............. .............. ............. ........... ............ ............ ........... ............ ............",
"......... ............. .............. ............. ........... ............ ............ ........... ............ ............",
"......... ............. .............. ............. ........... ............ ............ ........... ............ ............",
"......... ............. .............. ............. ........... ............ ............ ........... ............ ............",
"......... ............. .............. ............. ........... ............ ............ ........... ............ ............",
"......... ............. .............. ............. ........... ............ ............ ........... ............ ............",
"......... ............. .............. ............. ........... ............ ............ ........... ............ ............",
"......... ............. .............. ............. ........... ............ ............ ........... ............ ............",
"......... ............. .............. ............. ........... ............ ............ ........... ............ ............",
"......... ............. .............. ............. ........... ............ ............ ........... ............ ............"
};
